<mxfile host="Electron" modified="2023-05-30T15:21:42.494Z" agent="Mozilla/5.0 (Macintosh; Intel Mac OS X 10_15_7) AppleWebKit/537.36 (KHTML, like Gecko) draw.io/21.2.1 Chrome/112.0.5615.87 Electron/24.1.2 Safari/537.36" etag="j3314uINIwxWtDlHyHbO" version="21.2.1" type="device">
  <diagram name="Page-1" id="H1nZVYqxkzLZFgEqRADx">
    <mxGraphModel dx="-190" dy="23080" grid="1" gridSize="10" guides="1" tooltips="1" connect="1" arrows="1" fold="1" page="1" pageScale="1" pageWidth="850" pageHeight="1100" math="0" shadow="0">
      <root>
        <mxCell id="0" />
        <mxCell id="1" parent="0" />
        <mxCell id="AsBp8XiL8Dx4Y6rQVwFH-2887" value="R, W: 148, H: 73, ORDER: 17, GC: {73, 32, 20, 23, 12, 8, 7, 6, 2, 16, 9, 41, 3, 1, 5, 4, 34} " style="text;html=1;strokeColor=none;fillColor=none;align=center;verticalAlign=middle;whiteSpace=wrap;rounded=0;fontSize=32;" parent="1" vertex="1">
          <mxGeometry x="15340" y="-900" width="1480" height="30" as="geometry" />
        </mxCell>
        <mxCell id="AsBp8XiL8Dx4Y6rQVwFH-2983" value="R, W: 148, H: 130, ORDER: 20, GC: {25, 16, 28, 9, 7, 2, 5, 36, 41, 33, 38, 3, 35, 44, 12, 23, 69, 45, 11, 34} " style="text;html=1;strokeColor=none;fillColor=none;align=center;verticalAlign=middle;whiteSpace=wrap;rounded=0;fontSize=32;" parent="1" vertex="1">
          <mxGeometry x="15350" width="1480" height="30" as="geometry" />
        </mxCell>
        <mxCell id="AsBp8XiL8Dx4Y6rQVwFH-4285" value="R, W: 148, H: 141, ORDER: 22, GC: {33, 26, 36, 7, 19, 40, 53, 9, 27, 28, 10, 43, 20, 17, 3, 14, 68, 23, 12, 2, 45, 35} " style="text;html=1;strokeColor=none;fillColor=none;align=center;verticalAlign=middle;whiteSpace=wrap;rounded=0;fontSize=32;" parent="1" vertex="1">
          <mxGeometry x="15370" y="1480" width="1480" height="30" as="geometry" />
        </mxCell>
        <mxCell id="AsBp8XiL8Dx4Y6rQVwFH-4377" value="R, W: 148, H: 127, ORDER: 26, GC: {33, 35, 31, 2, 24, 20, 36, 4, 16, 11, 17, 29, 19, 5, 47, 22, 10, 9, 8, 23, 3, 44, 63, 7, 15, 41} " style="text;html=1;strokeColor=none;fillColor=none;align=center;verticalAlign=middle;whiteSpace=wrap;rounded=0;fontSize=32;" parent="1" vertex="1">
          <mxGeometry x="15390" y="3060" width="1480" height="30" as="geometry" />
        </mxCell>
        <mxCell id="AsBp8XiL8Dx4Y6rQVwFH-4509" value="R, W: 148, H: 130, ORDER: 23, GC: {36, 40, 32, 4, 21, 18, 33, 3, 15, 24, 28, 11, 5, 48, 6, 23, 17, 62, 25, 13, 12, 49, 37} " style="text;html=1;strokeColor=none;fillColor=none;align=center;verticalAlign=middle;whiteSpace=wrap;rounded=0;fontSize=32;" parent="1" vertex="1">
          <mxGeometry x="15280" y="4460" width="1480" height="30" as="geometry" />
        </mxCell>
        <mxCell id="AsBp8XiL8Dx4Y6rQVwFH-4600" value="R, W: 148, H: 136, ORDER: 18, GC: {61, 31, 15, 14, 27, 1, 13, 16, 4, 36, 19, 32, 11, 8, 3, 5, 75, 73} " style="text;html=1;strokeColor=none;fillColor=none;align=center;verticalAlign=middle;whiteSpace=wrap;rounded=0;fontSize=32;" parent="1" vertex="1">
          <mxGeometry x="15340" y="6000" width="1480" height="30" as="geometry" />
        </mxCell>
        <mxCell id="AsBp8XiL8Dx4Y6rQVwFH-4703" value="R, W: 148, H: 106, ORDER: 22, GC: {47, 35, 30, 36, 5, 18, 7, 1, 11, 8, 6, 2, 24, 13, 12, 28, 15, 3, 9, 46, 59, 43} " style="text;html=1;strokeColor=none;fillColor=none;align=center;verticalAlign=middle;whiteSpace=wrap;rounded=0;fontSize=32;" parent="1" vertex="1">
          <mxGeometry x="15370" y="7660" width="1480" height="30" as="geometry" />
        </mxCell>
        <mxCell id="AsBp8XiL8Dx4Y6rQVwFH-4771" value="R, W: 148, H: 144, ORDER: 21, GC: {56, 33, 35, 24, 11, 13, 23, 7, 3, 1, 5, 4, 21, 16, 17, 2, 15, 32, 88, 28, 60} " style="text;html=1;strokeColor=none;fillColor=none;align=center;verticalAlign=middle;whiteSpace=wrap;rounded=0;fontSize=32;" parent="1" vertex="1">
          <mxGeometry x="15340" y="8920" width="1480" height="30" as="geometry" />
        </mxCell>
        <mxCell id="AsBp8XiL8Dx4Y6rQVwFH-4860" value="R, W: 148, H: 144, ORDER: 22, GC: {55, 31, 26, 36, 12, 14, 24, 7, 17, 2, 5, 15, 1, 11, 6, 20, 8, 9, 89, 30, 29, 59} " style="text;html=1;strokeColor=none;fillColor=none;align=center;verticalAlign=middle;whiteSpace=wrap;rounded=0;fontSize=32;" parent="1" vertex="1">
          <mxGeometry x="15320" y="10520" width="1480" height="30" as="geometry" />
        </mxCell>
        <mxCell id="AsBp8XiL8Dx4Y6rQVwFH-4952" value="R, W: 148, H: 147, ORDER: 22, GC: {44, 41, 32, 31, 8, 23, 25, 7, 15, 38, 3, 22, 16, 6, 35, 47, 28, 56, 19, 18, 55, 37} " style="text;html=1;strokeColor=none;fillColor=none;align=center;verticalAlign=middle;whiteSpace=wrap;rounded=0;fontSize=32;" parent="1" vertex="1">
          <mxGeometry x="15320" y="12180" width="1480" height="30" as="geometry" />
        </mxCell>
        <mxCell id="AsBp8XiL8Dx4Y6rQVwFH-5021" value="R, W: 148, H: 90, ORDER: 16, GC: {40, 30, 29, 49, 1, 28, 10, 21, 8, 41, 50, 15, 6, 9, 33, 24} " style="text;html=1;strokeColor=none;fillColor=none;align=center;verticalAlign=middle;whiteSpace=wrap;rounded=0;fontSize=32;" parent="1" vertex="1">
          <mxGeometry x="15290" y="13820" width="1480" height="30" as="geometry" />
        </mxCell>
        <mxCell id="AsBp8XiL8Dx4Y6rQVwFH-5089" value="R, W: 148, H: 112, ORDER: 24, GC: {28, 13, 19, 7, 6, 43, 1, 24, 8, 36, 45, 21, 30, 14, 2, 12, 35, 26, 3, 32, 48, 9, 39, 29} " style="text;html=1;strokeColor=none;fillColor=none;align=center;verticalAlign=middle;whiteSpace=wrap;rounded=0;fontSize=32;" parent="1" vertex="1">
          <mxGeometry x="15320" y="14860" width="1480" height="30" as="geometry" />
        </mxCell>
        <mxCell id="AsBp8XiL8Dx4Y6rQVwFH-5212" value="R, W: 148, H: 86, ORDER: 22, GC: {40, 34, 23, 27, 19, 4, 24, 3, 21, 6, 20, 8, 16, 18, 12, 15, 14, 2, 41, 46, 32, 29} " style="text;html=1;strokeColor=none;fillColor=none;align=center;verticalAlign=middle;whiteSpace=wrap;rounded=0;fontSize=32;" parent="1" vertex="1">
          <mxGeometry x="15300" y="16110" width="1480" height="30" as="geometry" />
        </mxCell>
        <mxCell id="AsBp8XiL8Dx4Y6rQVwFH-5327" value="R, W: 148, H: 86, ORDER: 22, GC: {40, 34, 31, 19, 24, 14, 5, 29, 11, 18, 2, 16, 6, 20, 8, 12, 7, 37, 4, 33, 46, 32} " style="text;html=1;strokeColor=none;fillColor=none;align=center;verticalAlign=middle;whiteSpace=wrap;rounded=0;fontSize=32;" parent="1" vertex="1">
          <mxGeometry x="15320" y="17100" width="1480" height="30" as="geometry" />
        </mxCell>
        <mxCell id="AsBp8XiL8Dx4Y6rQVwFH-5481" value="R, W: 148, H: 75, ORDER: 17, GC: {75, 34, 16, 23, 9, 7, 2, 8, 5, 6, 4, 1, 20, 3, 12, 41, 32} " style="text;html=1;strokeColor=none;fillColor=none;align=center;verticalAlign=middle;whiteSpace=wrap;rounded=0;fontSize=32;" parent="1" vertex="1">
          <mxGeometry x="15290" y="18090" width="1480" height="30" as="geometry" />
        </mxCell>
        <mxCell id="yOzqqhK1axRImjvCnXJV-137" value="R, W: 148, H: 140, ORDER: 19, GC: {29, 21, 25, 8, 13, 32, 5, 37, 9, 16, 27, 36, 1, 35, 4, 34, 20, 79, 69} " style="text;html=1;strokeColor=none;fillColor=none;align=center;verticalAlign=middle;whiteSpace=wrap;rounded=0;fontSize=32;" vertex="1" parent="1">
          <mxGeometry x="15330" y="19010" width="1480" height="30" as="geometry" />
        </mxCell>
        <mxCell id="yOzqqhK1axRImjvCnXJV-157" value="R, W: 148, H: 140, ORDER: 26, GC: {27, 25, 17, 10, 13, 7, 3, 9, 14, 4, 5, 20, 8, 16, 2, 31, 29, 33, 19, 23, 22, 43, 1, 21, 84, 64} " style="text;html=1;strokeColor=none;fillColor=none;align=center;verticalAlign=middle;whiteSpace=wrap;rounded=0;fontStyle=2;fontSize=32;" vertex="1" parent="1">
          <mxGeometry x="15310" y="20530" width="1480" height="30" as="geometry" />
        </mxCell>
        <mxCell id="yOzqqhK1axRImjvCnXJV-158" value="" style="group;flipH=1;fontStyle=2;fontSize=32;flipV=1;" vertex="1" connectable="0" parent="1">
          <mxGeometry x="15320" y="20580" width="1480" height="1400" as="geometry" />
        </mxCell>
        <mxCell id="yOzqqhK1axRImjvCnXJV-159" value="33" style="rounded=0;whiteSpace=wrap;html=1;fontStyle=2;fontSize=32;" vertex="1" parent="yOzqqhK1axRImjvCnXJV-158">
          <mxGeometry x="1150" y="1070" width="330" height="330" as="geometry" />
        </mxCell>
        <mxCell id="yOzqqhK1axRImjvCnXJV-160" value="14" style="rounded=0;whiteSpace=wrap;html=1;fontStyle=2;fontSize=32;" vertex="1" parent="yOzqqhK1axRImjvCnXJV-158">
          <mxGeometry x="1010" y="1260" width="140" height="140" as="geometry" />
        </mxCell>
        <mxCell id="yOzqqhK1axRImjvCnXJV-161" value="9" style="rounded=0;whiteSpace=wrap;html=1;fontStyle=2;fontSize=32;" vertex="1" parent="yOzqqhK1axRImjvCnXJV-158">
          <mxGeometry x="920" y="1310" width="90" height="90" as="geometry" />
        </mxCell>
        <mxCell id="yOzqqhK1axRImjvCnXJV-162" value="13" style="rounded=0;whiteSpace=wrap;html=1;fontStyle=2;fontSize=32;" vertex="1" parent="yOzqqhK1axRImjvCnXJV-158">
          <mxGeometry x="790" y="1270" width="130" height="130" as="geometry" />
        </mxCell>
        <mxCell id="yOzqqhK1axRImjvCnXJV-163" value="5" style="rounded=0;whiteSpace=wrap;html=1;fontStyle=2;fontSize=32;" vertex="1" parent="yOzqqhK1axRImjvCnXJV-158">
          <mxGeometry x="960" y="1260" width="50" height="50" as="geometry" />
        </mxCell>
        <mxCell id="yOzqqhK1axRImjvCnXJV-164" value="4" style="rounded=0;whiteSpace=wrap;html=1;fontStyle=2;fontSize=32;" vertex="1" parent="yOzqqhK1axRImjvCnXJV-158">
          <mxGeometry x="920" y="1270" width="40" height="40" as="geometry" />
        </mxCell>
        <mxCell id="yOzqqhK1axRImjvCnXJV-165" value="10" style="rounded=0;whiteSpace=wrap;html=1;fontStyle=2;fontSize=32;" vertex="1" parent="yOzqqhK1axRImjvCnXJV-158">
          <mxGeometry x="690" y="1300" width="100" height="100" as="geometry" />
        </mxCell>
        <mxCell id="yOzqqhK1axRImjvCnXJV-166" value="17" style="rounded=0;whiteSpace=wrap;html=1;fontStyle=2;fontSize=32;" vertex="1" parent="yOzqqhK1axRImjvCnXJV-158">
          <mxGeometry x="520" y="1230" width="170" height="170" as="geometry" />
        </mxCell>
        <mxCell id="yOzqqhK1axRImjvCnXJV-167" value="3" style="rounded=0;whiteSpace=wrap;html=1;fontStyle=2;fontSize=32;" vertex="1" parent="yOzqqhK1axRImjvCnXJV-158">
          <mxGeometry x="760" y="1270" width="30" height="30" as="geometry" />
        </mxCell>
        <mxCell id="yOzqqhK1axRImjvCnXJV-168" value="7" style="rounded=0;whiteSpace=wrap;html=1;fontStyle=2;fontSize=32;" vertex="1" parent="yOzqqhK1axRImjvCnXJV-158">
          <mxGeometry x="690" y="1230" width="70" height="70" as="geometry" />
        </mxCell>
        <mxCell id="yOzqqhK1axRImjvCnXJV-169" value="20" style="rounded=0;whiteSpace=wrap;html=1;fontStyle=2;fontSize=32;" vertex="1" parent="yOzqqhK1axRImjvCnXJV-158">
          <mxGeometry x="760" y="1070" width="200" height="200" as="geometry" />
        </mxCell>
        <mxCell id="yOzqqhK1axRImjvCnXJV-170" value="19" style="rounded=0;whiteSpace=wrap;html=1;fontStyle=2;fontSize=32;" vertex="1" parent="yOzqqhK1axRImjvCnXJV-158">
          <mxGeometry x="960" y="1070" width="190" height="190" as="geometry" />
        </mxCell>
        <mxCell id="yOzqqhK1axRImjvCnXJV-171" value="25" style="rounded=0;whiteSpace=wrap;html=1;fontStyle=2;fontSize=32;" vertex="1" parent="yOzqqhK1axRImjvCnXJV-158">
          <mxGeometry x="270" y="1150" width="250" height="250" as="geometry" />
        </mxCell>
        <mxCell id="yOzqqhK1axRImjvCnXJV-172" value="16" style="rounded=0;whiteSpace=wrap;html=1;fontStyle=2;fontSize=32;" vertex="1" parent="yOzqqhK1axRImjvCnXJV-158">
          <mxGeometry x="600" y="1070" width="160" height="160" as="geometry" />
        </mxCell>
        <mxCell id="yOzqqhK1axRImjvCnXJV-173" value="8" style="rounded=0;whiteSpace=wrap;html=1;fontStyle=2;fontSize=32;" vertex="1" parent="yOzqqhK1axRImjvCnXJV-158">
          <mxGeometry x="520" y="1150" width="80" height="80" as="geometry" />
        </mxCell>
        <mxCell id="yOzqqhK1axRImjvCnXJV-174" value="27" style="rounded=0;whiteSpace=wrap;html=1;fontStyle=2;fontSize=32;" vertex="1" parent="yOzqqhK1axRImjvCnXJV-158">
          <mxGeometry y="1130" width="270" height="270" as="geometry" />
        </mxCell>
        <mxCell id="yOzqqhK1axRImjvCnXJV-175" value="31" style="rounded=0;whiteSpace=wrap;html=1;fontStyle=2;fontSize=32;" vertex="1" parent="yOzqqhK1axRImjvCnXJV-158">
          <mxGeometry x="290" y="840" width="310" height="310" as="geometry" />
        </mxCell>
        <mxCell id="yOzqqhK1axRImjvCnXJV-176" value="2" style="rounded=0;whiteSpace=wrap;html=1;fontStyle=2;fontSize=32;" vertex="1" parent="yOzqqhK1axRImjvCnXJV-158">
          <mxGeometry x="270" y="1130" width="20" height="20" as="geometry" />
        </mxCell>
        <mxCell id="yOzqqhK1axRImjvCnXJV-177" value="29" style="rounded=0;whiteSpace=wrap;html=1;fontStyle=2;fontSize=32;" vertex="1" parent="yOzqqhK1axRImjvCnXJV-158">
          <mxGeometry y="840" width="290" height="290" as="geometry" />
        </mxCell>
        <mxCell id="yOzqqhK1axRImjvCnXJV-178" value="43" style="rounded=0;whiteSpace=wrap;html=1;fontStyle=2;fontSize=32;" vertex="1" parent="yOzqqhK1axRImjvCnXJV-158">
          <mxGeometry x="1050" y="640" width="430" height="430" as="geometry" />
        </mxCell>
        <mxCell id="yOzqqhK1axRImjvCnXJV-179" value="22" style="rounded=0;whiteSpace=wrap;html=1;fontStyle=2;fontSize=32;" vertex="1" parent="yOzqqhK1axRImjvCnXJV-158">
          <mxGeometry x="830" y="850" width="220" height="220" as="geometry" />
        </mxCell>
        <mxCell id="yOzqqhK1axRImjvCnXJV-180" value="23" style="rounded=0;whiteSpace=wrap;html=1;fontStyle=2;fontSize=32;" vertex="1" parent="yOzqqhK1axRImjvCnXJV-158">
          <mxGeometry x="600" y="840" width="230" height="230" as="geometry" />
        </mxCell>
        <mxCell id="yOzqqhK1axRImjvCnXJV-181" value="21" style="rounded=0;whiteSpace=wrap;html=1;fontStyle=2;fontSize=32;" vertex="1" parent="yOzqqhK1axRImjvCnXJV-158">
          <mxGeometry x="840" y="640" width="210" height="210" as="geometry" />
        </mxCell>
        <mxCell id="yOzqqhK1axRImjvCnXJV-182" value="1" style="rounded=0;whiteSpace=wrap;html=1;fontStyle=2;fontSize=32;" vertex="1" parent="yOzqqhK1axRImjvCnXJV-158">
          <mxGeometry x="830" y="840" width="10" height="10" as="geometry" />
        </mxCell>
        <mxCell id="yOzqqhK1axRImjvCnXJV-183" value="84" style="rounded=0;whiteSpace=wrap;html=1;fontStyle=2;fontSize=32;" vertex="1" parent="yOzqqhK1axRImjvCnXJV-158">
          <mxGeometry width="840" height="840" as="geometry" />
        </mxCell>
        <mxCell id="yOzqqhK1axRImjvCnXJV-184" value="64" style="rounded=0;whiteSpace=wrap;html=1;fontStyle=2;fontSize=32;" vertex="1" parent="yOzqqhK1axRImjvCnXJV-158">
          <mxGeometry x="840" width="640" height="640" as="geometry" />
        </mxCell>
        <mxCell id="yOzqqhK1axRImjvCnXJV-185" value="" style="group;flipV=1;" vertex="1" connectable="0" parent="1">
          <mxGeometry x="15340" y="-850" width="1480" height="730" as="geometry" />
        </mxCell>
        <mxCell id="761dnnyQ54j-Cl0NHfQN-2888" value="73" style="rounded=0;whiteSpace=wrap;html=1;fontSize=32;" parent="yOzqqhK1axRImjvCnXJV-185" vertex="1">
          <mxGeometry width="730" height="730" as="geometry" />
        </mxCell>
        <mxCell id="761dnnyQ54j-Cl0NHfQN-2889" value="32" style="rounded=0;whiteSpace=wrap;html=1;fontSize=32;fillColor=#f5f5f5;fontColor=#333333;strokeColor=#666666;" parent="yOzqqhK1axRImjvCnXJV-185" vertex="1">
          <mxGeometry x="730" y="410" width="320" height="320" as="geometry" />
        </mxCell>
        <mxCell id="761dnnyQ54j-Cl0NHfQN-2890" value="20" style="rounded=0;whiteSpace=wrap;html=1;fontSize=32;fillColor=#f5f5f5;fontColor=#333333;strokeColor=#666666;" parent="yOzqqhK1axRImjvCnXJV-185" vertex="1">
          <mxGeometry x="1050" y="530" width="200" height="200" as="geometry" />
        </mxCell>
        <mxCell id="761dnnyQ54j-Cl0NHfQN-2891" value="23" style="rounded=0;whiteSpace=wrap;html=1;fontSize=32;fillColor=#f5f5f5;fontColor=#333333;strokeColor=#666666;" parent="yOzqqhK1axRImjvCnXJV-185" vertex="1">
          <mxGeometry x="1250" y="500" width="230" height="230" as="geometry" />
        </mxCell>
        <mxCell id="761dnnyQ54j-Cl0NHfQN-2892" value="12" style="rounded=0;whiteSpace=wrap;html=1;fontSize=32;fillColor=#f5f5f5;fontColor=#333333;strokeColor=#666666;" parent="yOzqqhK1axRImjvCnXJV-185" vertex="1">
          <mxGeometry x="1050" y="410" width="120" height="120" as="geometry" />
        </mxCell>
        <mxCell id="761dnnyQ54j-Cl0NHfQN-2893" value="8" style="rounded=0;whiteSpace=wrap;html=1;fontSize=32;fillColor=#f5f5f5;fontColor=#333333;strokeColor=#666666;" parent="yOzqqhK1axRImjvCnXJV-185" vertex="1">
          <mxGeometry x="1170" y="450" width="80" height="80" as="geometry" />
        </mxCell>
        <mxCell id="761dnnyQ54j-Cl0NHfQN-2894" value="7" style="rounded=0;whiteSpace=wrap;html=1;fontSize=32;fillColor=#f5f5f5;fontColor=#333333;strokeColor=#666666;" parent="yOzqqhK1axRImjvCnXJV-185" vertex="1">
          <mxGeometry x="1250" y="430" width="70" height="70" as="geometry" />
        </mxCell>
        <mxCell id="761dnnyQ54j-Cl0NHfQN-2895" value="6" style="rounded=0;whiteSpace=wrap;html=1;fontSize=32;fillColor=#f5f5f5;fontColor=#333333;strokeColor=#666666;" parent="yOzqqhK1axRImjvCnXJV-185" vertex="1">
          <mxGeometry x="1170" y="390" width="60" height="60" as="geometry" />
        </mxCell>
        <mxCell id="761dnnyQ54j-Cl0NHfQN-2896" value="2" style="rounded=0;whiteSpace=wrap;html=1;fontSize=32;fillColor=#f5f5f5;fontColor=#333333;strokeColor=#666666;" parent="yOzqqhK1axRImjvCnXJV-185" vertex="1">
          <mxGeometry x="1230" y="430" width="20" height="20" as="geometry" />
        </mxCell>
        <mxCell id="761dnnyQ54j-Cl0NHfQN-2897" value="16" style="rounded=0;whiteSpace=wrap;html=1;fontSize=32;fillColor=#f5f5f5;fontColor=#333333;strokeColor=#666666;" parent="yOzqqhK1axRImjvCnXJV-185" vertex="1">
          <mxGeometry x="1320" y="340" width="160" height="160" as="geometry" />
        </mxCell>
        <mxCell id="761dnnyQ54j-Cl0NHfQN-2898" value="9" style="rounded=0;whiteSpace=wrap;html=1;fontSize=32;fillColor=#f5f5f5;fontColor=#333333;strokeColor=#666666;" parent="yOzqqhK1axRImjvCnXJV-185" vertex="1">
          <mxGeometry x="1230" y="340" width="90" height="90" as="geometry" />
        </mxCell>
        <mxCell id="761dnnyQ54j-Cl0NHfQN-2899" value="41" style="rounded=0;whiteSpace=wrap;html=1;fontSize=32;fillColor=#f5f5f5;fontColor=#333333;strokeColor=#666666;" parent="yOzqqhK1axRImjvCnXJV-185" vertex="1">
          <mxGeometry x="730" width="410" height="410" as="geometry" />
        </mxCell>
        <mxCell id="761dnnyQ54j-Cl0NHfQN-2900" value="3" style="rounded=0;whiteSpace=wrap;html=1;fontSize=32;fillColor=#f5f5f5;fontColor=#333333;strokeColor=#666666;" parent="yOzqqhK1axRImjvCnXJV-185" vertex="1">
          <mxGeometry x="1140" y="380" width="30" height="30" as="geometry" />
        </mxCell>
        <mxCell id="761dnnyQ54j-Cl0NHfQN-2901" value="1" style="rounded=0;whiteSpace=wrap;html=1;fontSize=32;fillColor=#f5f5f5;fontColor=#333333;strokeColor=#666666;" parent="yOzqqhK1axRImjvCnXJV-185" vertex="1">
          <mxGeometry x="1170" y="380" width="10" height="10" as="geometry" />
        </mxCell>
        <mxCell id="761dnnyQ54j-Cl0NHfQN-2902" value="5" style="rounded=0;whiteSpace=wrap;html=1;fontSize=32;fillColor=#f5f5f5;fontColor=#333333;strokeColor=#666666;" parent="yOzqqhK1axRImjvCnXJV-185" vertex="1">
          <mxGeometry x="1180" y="340" width="50" height="50" as="geometry" />
        </mxCell>
        <mxCell id="761dnnyQ54j-Cl0NHfQN-2903" value="4" style="rounded=0;whiteSpace=wrap;html=1;fontSize=32;fillColor=#f5f5f5;fontColor=#333333;strokeColor=#666666;" parent="yOzqqhK1axRImjvCnXJV-185" vertex="1">
          <mxGeometry x="1140" y="340" width="40" height="40" as="geometry" />
        </mxCell>
        <mxCell id="761dnnyQ54j-Cl0NHfQN-2904" value="34" style="rounded=0;whiteSpace=wrap;html=1;fontSize=32;fillColor=#f5f5f5;fontColor=#333333;strokeColor=#666666;" parent="yOzqqhK1axRImjvCnXJV-185" vertex="1">
          <mxGeometry x="1140" width="340" height="340" as="geometry" />
        </mxCell>
        <mxCell id="yOzqqhK1axRImjvCnXJV-186" value="" style="group;flipV=1;" vertex="1" connectable="0" parent="1">
          <mxGeometry x="15350" y="50" width="1480" height="1300" as="geometry" />
        </mxCell>
        <mxCell id="761dnnyQ54j-Cl0NHfQN-2984" value="25" style="rounded=0;whiteSpace=wrap;html=1;fontSize=32;fillColor=#CCCCCC;fontColor=#333333;strokeColor=#666666;" parent="yOzqqhK1axRImjvCnXJV-186" vertex="1">
          <mxGeometry y="1050" width="250" height="250" as="geometry" />
        </mxCell>
        <mxCell id="761dnnyQ54j-Cl0NHfQN-2985" value="16" style="rounded=0;whiteSpace=wrap;html=1;fontSize=32;fillColor=#CCCCCC;fontColor=#333333;strokeColor=#666666;" parent="yOzqqhK1axRImjvCnXJV-186" vertex="1">
          <mxGeometry x="250" y="1140" width="160" height="160" as="geometry" />
        </mxCell>
        <mxCell id="761dnnyQ54j-Cl0NHfQN-2986" value="28" style="rounded=0;whiteSpace=wrap;html=1;fontSize=32;fillColor=#CCCCCC;fontColor=#333333;strokeColor=#666666;" parent="yOzqqhK1axRImjvCnXJV-186" vertex="1">
          <mxGeometry x="410" y="1020" width="280" height="280" as="geometry" />
        </mxCell>
        <mxCell id="761dnnyQ54j-Cl0NHfQN-2987" value="9" style="rounded=0;whiteSpace=wrap;html=1;fontSize=32;fillColor=#CCCCCC;fontColor=#333333;strokeColor=#666666;" parent="yOzqqhK1axRImjvCnXJV-186" vertex="1">
          <mxGeometry x="250" y="1050" width="90" height="90" as="geometry" />
        </mxCell>
        <mxCell id="761dnnyQ54j-Cl0NHfQN-2988" value="7" style="rounded=0;whiteSpace=wrap;html=1;fontSize=32;fillColor=#CCCCCC;fontColor=#333333;strokeColor=#666666;" parent="yOzqqhK1axRImjvCnXJV-186" vertex="1">
          <mxGeometry x="340" y="1070" width="70" height="70" as="geometry" />
        </mxCell>
        <mxCell id="761dnnyQ54j-Cl0NHfQN-2989" value="2" style="rounded=0;whiteSpace=wrap;html=1;fontSize=32;fillColor=#CCCCCC;fontColor=#333333;strokeColor=#666666;" parent="yOzqqhK1axRImjvCnXJV-186" vertex="1">
          <mxGeometry x="340" y="1050" width="20" height="20" as="geometry" />
        </mxCell>
        <mxCell id="761dnnyQ54j-Cl0NHfQN-2990" value="5" style="rounded=0;whiteSpace=wrap;html=1;fontSize=32;fillColor=#CCCCCC;fontColor=#333333;strokeColor=#666666;" parent="yOzqqhK1axRImjvCnXJV-186" vertex="1">
          <mxGeometry x="360" y="1020" width="50" height="50" as="geometry" />
        </mxCell>
        <mxCell id="761dnnyQ54j-Cl0NHfQN-2991" value="36" style="rounded=0;whiteSpace=wrap;html=1;fontSize=32;fillColor=#CCCCCC;fontColor=#333333;strokeColor=#666666;" parent="yOzqqhK1axRImjvCnXJV-186" vertex="1">
          <mxGeometry y="690" width="360" height="360" as="geometry" />
        </mxCell>
        <mxCell id="761dnnyQ54j-Cl0NHfQN-2992" value="41" style="rounded=0;whiteSpace=wrap;html=1;fontSize=32;fillColor=#f5f5f5;fontColor=#333333;strokeColor=#666666;" parent="yOzqqhK1axRImjvCnXJV-186" vertex="1">
          <mxGeometry x="690" y="890" width="410" height="410" as="geometry" />
        </mxCell>
        <mxCell id="761dnnyQ54j-Cl0NHfQN-2993" value="33" style="rounded=0;whiteSpace=wrap;html=1;fontSize=32;fillColor=#CCCCCC;fontColor=#333333;strokeColor=#666666;" parent="yOzqqhK1axRImjvCnXJV-186" vertex="1">
          <mxGeometry x="360" y="690" width="330" height="330" as="geometry" />
        </mxCell>
        <mxCell id="761dnnyQ54j-Cl0NHfQN-2994" value="38" style="rounded=0;whiteSpace=wrap;html=1;fontSize=32;fillColor=#f5f5f5;fontColor=#333333;strokeColor=#666666;" parent="yOzqqhK1axRImjvCnXJV-186" vertex="1">
          <mxGeometry x="1100" y="920" width="380" height="380" as="geometry" />
        </mxCell>
        <mxCell id="761dnnyQ54j-Cl0NHfQN-2995" value="3" style="rounded=0;whiteSpace=wrap;html=1;fontSize=32;fillColor=#f5f5f5;fontColor=#333333;strokeColor=#666666;" parent="yOzqqhK1axRImjvCnXJV-186" vertex="1">
          <mxGeometry x="1100" y="890" width="30" height="30" as="geometry" />
        </mxCell>
        <mxCell id="761dnnyQ54j-Cl0NHfQN-2996" value="35" style="rounded=0;whiteSpace=wrap;html=1;fontSize=32;fillColor=#f5f5f5;fontColor=#333333;strokeColor=#666666;" parent="yOzqqhK1axRImjvCnXJV-186" vertex="1">
          <mxGeometry x="1130" y="570" width="350" height="350" as="geometry" />
        </mxCell>
        <mxCell id="761dnnyQ54j-Cl0NHfQN-2997" value="44" style="rounded=0;whiteSpace=wrap;html=1;fontSize=32;fillColor=#f5f5f5;fontColor=#333333;strokeColor=#666666;" parent="yOzqqhK1axRImjvCnXJV-186" vertex="1">
          <mxGeometry x="690" y="450" width="440" height="440" as="geometry" />
        </mxCell>
        <mxCell id="761dnnyQ54j-Cl0NHfQN-2998" value="12" style="rounded=0;whiteSpace=wrap;html=1;fontSize=32;fillColor=#f5f5f5;fontColor=#333333;strokeColor=#666666;" parent="yOzqqhK1axRImjvCnXJV-186" vertex="1">
          <mxGeometry x="1130" y="450" width="120" height="120" as="geometry" />
        </mxCell>
        <mxCell id="761dnnyQ54j-Cl0NHfQN-2999" value="23" style="rounded=0;whiteSpace=wrap;html=1;fontSize=32;fillColor=#f5f5f5;fontColor=#333333;strokeColor=#666666;" parent="yOzqqhK1axRImjvCnXJV-186" vertex="1">
          <mxGeometry x="1250" y="340" width="230" height="230" as="geometry" />
        </mxCell>
        <mxCell id="761dnnyQ54j-Cl0NHfQN-3000" value="69" style="rounded=0;whiteSpace=wrap;html=1;fontSize=32;" parent="yOzqqhK1axRImjvCnXJV-186" vertex="1">
          <mxGeometry width="690" height="690" as="geometry" />
        </mxCell>
        <mxCell id="761dnnyQ54j-Cl0NHfQN-3001" value="45" style="rounded=0;whiteSpace=wrap;html=1;fontSize=32;fillColor=#f5f5f5;fontColor=#333333;strokeColor=#666666;" parent="yOzqqhK1axRImjvCnXJV-186" vertex="1">
          <mxGeometry x="690" width="450" height="450" as="geometry" />
        </mxCell>
        <mxCell id="761dnnyQ54j-Cl0NHfQN-3002" value="11" style="rounded=0;whiteSpace=wrap;html=1;fontSize=32;fillColor=#f5f5f5;fontColor=#333333;strokeColor=#666666;" parent="yOzqqhK1axRImjvCnXJV-186" vertex="1">
          <mxGeometry x="1140" y="340" width="110" height="110" as="geometry" />
        </mxCell>
        <mxCell id="761dnnyQ54j-Cl0NHfQN-3003" value="34" style="rounded=0;whiteSpace=wrap;html=1;fontSize=32;fillColor=#f5f5f5;fontColor=#333333;strokeColor=#666666;" parent="yOzqqhK1axRImjvCnXJV-186" vertex="1">
          <mxGeometry x="1140" width="340" height="340" as="geometry" />
        </mxCell>
        <mxCell id="yOzqqhK1axRImjvCnXJV-187" value="" style="group;flipV=1;" vertex="1" connectable="0" parent="1">
          <mxGeometry x="15370" y="1530" width="1480" height="1410" as="geometry" />
        </mxCell>
        <mxCell id="761dnnyQ54j-Cl0NHfQN-4286" value="33" style="rounded=0;whiteSpace=wrap;html=1;fontSize=32;" parent="yOzqqhK1axRImjvCnXJV-187" vertex="1">
          <mxGeometry y="1080" width="330" height="330" as="geometry" />
        </mxCell>
        <mxCell id="761dnnyQ54j-Cl0NHfQN-4287" value="26" style="rounded=0;whiteSpace=wrap;html=1;fontSize=32;" parent="yOzqqhK1axRImjvCnXJV-187" vertex="1">
          <mxGeometry x="330" y="1150" width="260" height="260" as="geometry" />
        </mxCell>
        <mxCell id="761dnnyQ54j-Cl0NHfQN-4288" value="36" style="rounded=0;whiteSpace=wrap;html=1;fontSize=32;" parent="yOzqqhK1axRImjvCnXJV-187" vertex="1">
          <mxGeometry x="590" y="1050" width="360" height="360" as="geometry" />
        </mxCell>
        <mxCell id="761dnnyQ54j-Cl0NHfQN-4289" value="7" style="rounded=0;whiteSpace=wrap;html=1;fontSize=32;" parent="yOzqqhK1axRImjvCnXJV-187" vertex="1">
          <mxGeometry x="330" y="1080" width="70" height="70" as="geometry" />
        </mxCell>
        <mxCell id="761dnnyQ54j-Cl0NHfQN-4290" value="19" style="rounded=0;whiteSpace=wrap;html=1;fontSize=32;" parent="yOzqqhK1axRImjvCnXJV-187" vertex="1">
          <mxGeometry x="400" y="960" width="190" height="190" as="geometry" />
        </mxCell>
        <mxCell id="761dnnyQ54j-Cl0NHfQN-4291" value="40" style="rounded=0;whiteSpace=wrap;html=1;fontSize=32;" parent="yOzqqhK1axRImjvCnXJV-187" vertex="1">
          <mxGeometry y="680" width="400" height="400" as="geometry" />
        </mxCell>
        <mxCell id="761dnnyQ54j-Cl0NHfQN-4292" value="53" style="rounded=0;whiteSpace=wrap;html=1;fontSize=32;" parent="yOzqqhK1axRImjvCnXJV-187" vertex="1">
          <mxGeometry x="950" y="880" width="530" height="530" as="geometry" />
        </mxCell>
        <mxCell id="761dnnyQ54j-Cl0NHfQN-4293" value="9" style="rounded=0;whiteSpace=wrap;html=1;fontSize=32;" parent="yOzqqhK1axRImjvCnXJV-187" vertex="1">
          <mxGeometry x="590" y="960" width="90" height="90" as="geometry" />
        </mxCell>
        <mxCell id="761dnnyQ54j-Cl0NHfQN-4294" value="27" style="rounded=0;whiteSpace=wrap;html=1;fontSize=32;" parent="yOzqqhK1axRImjvCnXJV-187" vertex="1">
          <mxGeometry x="680" y="780" width="270" height="270" as="geometry" />
        </mxCell>
        <mxCell id="761dnnyQ54j-Cl0NHfQN-4295" value="28" style="rounded=0;whiteSpace=wrap;html=1;fontSize=32;" parent="yOzqqhK1axRImjvCnXJV-187" vertex="1">
          <mxGeometry x="400" y="680" width="280" height="280" as="geometry" />
        </mxCell>
        <mxCell id="761dnnyQ54j-Cl0NHfQN-4296" value="10" style="rounded=0;whiteSpace=wrap;html=1;fontSize=32;" parent="yOzqqhK1axRImjvCnXJV-187" vertex="1">
          <mxGeometry x="950" y="780" width="100" height="100" as="geometry" />
        </mxCell>
        <mxCell id="761dnnyQ54j-Cl0NHfQN-4297" value="43" style="rounded=0;whiteSpace=wrap;html=1;fontSize=32;" parent="yOzqqhK1axRImjvCnXJV-187" vertex="1">
          <mxGeometry x="1050" y="450" width="430" height="430" as="geometry" />
        </mxCell>
        <mxCell id="761dnnyQ54j-Cl0NHfQN-4298" value="20" style="rounded=0;whiteSpace=wrap;html=1;fontSize=32;" parent="yOzqqhK1axRImjvCnXJV-187" vertex="1">
          <mxGeometry x="680" y="580" width="200" height="200" as="geometry" />
        </mxCell>
        <mxCell id="761dnnyQ54j-Cl0NHfQN-4299" value="17" style="rounded=0;whiteSpace=wrap;html=1;fontSize=32;" parent="yOzqqhK1axRImjvCnXJV-187" vertex="1">
          <mxGeometry x="880" y="610" width="170" height="170" as="geometry" />
        </mxCell>
        <mxCell id="761dnnyQ54j-Cl0NHfQN-4300" value="3" style="rounded=0;whiteSpace=wrap;html=1;fontSize=32;" parent="yOzqqhK1axRImjvCnXJV-187" vertex="1">
          <mxGeometry x="880" y="580" width="30" height="30" as="geometry" />
        </mxCell>
        <mxCell id="761dnnyQ54j-Cl0NHfQN-4301" value="14" style="rounded=0;whiteSpace=wrap;html=1;fontSize=32;" parent="yOzqqhK1axRImjvCnXJV-187" vertex="1">
          <mxGeometry x="910" y="470" width="140" height="140" as="geometry" />
        </mxCell>
        <mxCell id="761dnnyQ54j-Cl0NHfQN-4302" value="68" style="rounded=0;whiteSpace=wrap;html=1;fontSize=32;" parent="yOzqqhK1axRImjvCnXJV-187" vertex="1">
          <mxGeometry width="680" height="680" as="geometry" />
        </mxCell>
        <mxCell id="761dnnyQ54j-Cl0NHfQN-4303" value="23" style="rounded=0;whiteSpace=wrap;html=1;fontSize=32;" parent="yOzqqhK1axRImjvCnXJV-187" vertex="1">
          <mxGeometry x="680" y="350" width="230" height="230" as="geometry" />
        </mxCell>
        <mxCell id="761dnnyQ54j-Cl0NHfQN-4304" value="12" style="rounded=0;whiteSpace=wrap;html=1;fontSize=32;" parent="yOzqqhK1axRImjvCnXJV-187" vertex="1">
          <mxGeometry x="910" y="350" width="120" height="120" as="geometry" />
        </mxCell>
        <mxCell id="761dnnyQ54j-Cl0NHfQN-4305" value="2" style="rounded=0;whiteSpace=wrap;html=1;fontSize=32;" parent="yOzqqhK1axRImjvCnXJV-187" vertex="1">
          <mxGeometry x="1030" y="450" width="20" height="20" as="geometry" />
        </mxCell>
        <mxCell id="761dnnyQ54j-Cl0NHfQN-4306" value="45" style="rounded=0;whiteSpace=wrap;html=1;fontSize=32;" parent="yOzqqhK1axRImjvCnXJV-187" vertex="1">
          <mxGeometry x="1030" width="450" height="450" as="geometry" />
        </mxCell>
        <mxCell id="761dnnyQ54j-Cl0NHfQN-4307" value="35" style="rounded=0;whiteSpace=wrap;html=1;fontSize=32;" parent="yOzqqhK1axRImjvCnXJV-187" vertex="1">
          <mxGeometry x="680" width="350" height="350" as="geometry" />
        </mxCell>
        <mxCell id="yOzqqhK1axRImjvCnXJV-188" value="" style="group;flipV=1;" vertex="1" connectable="0" parent="1">
          <mxGeometry x="15390" y="3110" width="1480" height="1270" as="geometry" />
        </mxCell>
        <mxCell id="761dnnyQ54j-Cl0NHfQN-4378" value="33" style="rounded=0;whiteSpace=wrap;html=1;fontSize=32;" parent="yOzqqhK1axRImjvCnXJV-188" vertex="1">
          <mxGeometry y="940" width="330" height="330" as="geometry" />
        </mxCell>
        <mxCell id="761dnnyQ54j-Cl0NHfQN-4379" value="35" style="rounded=0;whiteSpace=wrap;html=1;fontSize=32;" parent="yOzqqhK1axRImjvCnXJV-188" vertex="1">
          <mxGeometry x="330" y="920" width="350" height="350" as="geometry" />
        </mxCell>
        <mxCell id="761dnnyQ54j-Cl0NHfQN-4380" value="31" style="rounded=0;whiteSpace=wrap;html=1;fontSize=32;" parent="yOzqqhK1axRImjvCnXJV-188" vertex="1">
          <mxGeometry y="630" width="310" height="310" as="geometry" />
        </mxCell>
        <mxCell id="761dnnyQ54j-Cl0NHfQN-4381" value="2" style="rounded=0;whiteSpace=wrap;html=1;fontSize=32;" parent="yOzqqhK1axRImjvCnXJV-188" vertex="1">
          <mxGeometry x="310" y="920" width="20" height="20" as="geometry" />
        </mxCell>
        <mxCell id="761dnnyQ54j-Cl0NHfQN-4382" value="24" style="rounded=0;whiteSpace=wrap;html=1;fontSize=32;" parent="yOzqqhK1axRImjvCnXJV-188" vertex="1">
          <mxGeometry x="680" y="1030" width="240" height="240" as="geometry" />
        </mxCell>
        <mxCell id="761dnnyQ54j-Cl0NHfQN-4383" value="20" style="rounded=0;whiteSpace=wrap;html=1;fontSize=32;" parent="yOzqqhK1axRImjvCnXJV-188" vertex="1">
          <mxGeometry x="920" y="1070" width="200" height="200" as="geometry" />
        </mxCell>
        <mxCell id="761dnnyQ54j-Cl0NHfQN-4384" value="36" style="rounded=0;whiteSpace=wrap;html=1;fontSize=32;" parent="yOzqqhK1axRImjvCnXJV-188" vertex="1">
          <mxGeometry x="1120" y="910" width="360" height="360" as="geometry" />
        </mxCell>
        <mxCell id="761dnnyQ54j-Cl0NHfQN-4385" value="4" style="rounded=0;whiteSpace=wrap;html=1;fontSize=32;" parent="yOzqqhK1axRImjvCnXJV-188" vertex="1">
          <mxGeometry x="920" y="1030" width="40" height="40" as="geometry" />
        </mxCell>
        <mxCell id="761dnnyQ54j-Cl0NHfQN-4386" value="16" style="rounded=0;whiteSpace=wrap;html=1;fontSize=32;" parent="yOzqqhK1axRImjvCnXJV-188" vertex="1">
          <mxGeometry x="960" y="910" width="160" height="160" as="geometry" />
        </mxCell>
        <mxCell id="761dnnyQ54j-Cl0NHfQN-4387" value="11" style="rounded=0;whiteSpace=wrap;html=1;fontSize=32;" parent="yOzqqhK1axRImjvCnXJV-188" vertex="1">
          <mxGeometry x="680" y="920" width="110" height="110" as="geometry" />
        </mxCell>
        <mxCell id="761dnnyQ54j-Cl0NHfQN-4388" value="17" style="rounded=0;whiteSpace=wrap;html=1;fontSize=32;" parent="yOzqqhK1axRImjvCnXJV-188" vertex="1">
          <mxGeometry x="790" y="860" width="170" height="170" as="geometry" />
        </mxCell>
        <mxCell id="761dnnyQ54j-Cl0NHfQN-4389" value="29" style="rounded=0;whiteSpace=wrap;html=1;fontSize=32;" parent="yOzqqhK1axRImjvCnXJV-188" vertex="1">
          <mxGeometry x="310" y="630" width="290" height="290" as="geometry" />
        </mxCell>
        <mxCell id="761dnnyQ54j-Cl0NHfQN-4390" value="19" style="rounded=0;whiteSpace=wrap;html=1;fontSize=32;" parent="yOzqqhK1axRImjvCnXJV-188" vertex="1">
          <mxGeometry x="600" y="730" width="190" height="190" as="geometry" />
        </mxCell>
        <mxCell id="761dnnyQ54j-Cl0NHfQN-4391" value="5" style="rounded=0;whiteSpace=wrap;html=1;fontSize=32;" parent="yOzqqhK1axRImjvCnXJV-188" vertex="1">
          <mxGeometry x="960" y="860" width="50" height="50" as="geometry" />
        </mxCell>
        <mxCell id="761dnnyQ54j-Cl0NHfQN-4392" value="47" style="rounded=0;whiteSpace=wrap;html=1;fontSize=32;" parent="yOzqqhK1axRImjvCnXJV-188" vertex="1">
          <mxGeometry x="1010" y="440" width="470" height="470" as="geometry" />
        </mxCell>
        <mxCell id="761dnnyQ54j-Cl0NHfQN-4393" value="22" style="rounded=0;whiteSpace=wrap;html=1;fontSize=32;" parent="yOzqqhK1axRImjvCnXJV-188" vertex="1">
          <mxGeometry x="790" y="640" width="220" height="220" as="geometry" />
        </mxCell>
        <mxCell id="761dnnyQ54j-Cl0NHfQN-4394" value="10" style="rounded=0;whiteSpace=wrap;html=1;fontSize=32;" parent="yOzqqhK1axRImjvCnXJV-188" vertex="1">
          <mxGeometry x="600" y="630" width="100" height="100" as="geometry" />
        </mxCell>
        <mxCell id="761dnnyQ54j-Cl0NHfQN-4395" value="9" style="rounded=0;whiteSpace=wrap;html=1;fontSize=32;" parent="yOzqqhK1axRImjvCnXJV-188" vertex="1">
          <mxGeometry x="700" y="640" width="90" height="90" as="geometry" />
        </mxCell>
        <mxCell id="761dnnyQ54j-Cl0NHfQN-4396" value="8" style="rounded=0;whiteSpace=wrap;html=1;fontSize=32;" parent="yOzqqhK1axRImjvCnXJV-188" vertex="1">
          <mxGeometry x="700" y="560" width="80" height="80" as="geometry" />
        </mxCell>
        <mxCell id="761dnnyQ54j-Cl0NHfQN-4397" value="23" style="rounded=0;whiteSpace=wrap;html=1;fontSize=32;" parent="yOzqqhK1axRImjvCnXJV-188" vertex="1">
          <mxGeometry x="780" y="410" width="230" height="230" as="geometry" />
        </mxCell>
        <mxCell id="761dnnyQ54j-Cl0NHfQN-4398" value="3" style="rounded=0;whiteSpace=wrap;html=1;fontSize=32;" parent="yOzqqhK1axRImjvCnXJV-188" vertex="1">
          <mxGeometry x="1010" y="410" width="30" height="30" as="geometry" />
        </mxCell>
        <mxCell id="761dnnyQ54j-Cl0NHfQN-4399" value="44" style="rounded=0;whiteSpace=wrap;html=1;fontSize=32;" parent="yOzqqhK1axRImjvCnXJV-188" vertex="1">
          <mxGeometry x="1040" width="440" height="440" as="geometry" />
        </mxCell>
        <mxCell id="761dnnyQ54j-Cl0NHfQN-4400" value="63" style="rounded=0;whiteSpace=wrap;html=1;fontSize=32;" parent="yOzqqhK1axRImjvCnXJV-188" vertex="1">
          <mxGeometry width="630" height="630" as="geometry" />
        </mxCell>
        <mxCell id="761dnnyQ54j-Cl0NHfQN-4401" value="7" style="rounded=0;whiteSpace=wrap;html=1;fontSize=32;" parent="yOzqqhK1axRImjvCnXJV-188" vertex="1">
          <mxGeometry x="630" y="560" width="70" height="70" as="geometry" />
        </mxCell>
        <mxCell id="761dnnyQ54j-Cl0NHfQN-4402" value="15" style="rounded=0;whiteSpace=wrap;html=1;fontSize=32;" parent="yOzqqhK1axRImjvCnXJV-188" vertex="1">
          <mxGeometry x="630" y="410" width="150" height="150" as="geometry" />
        </mxCell>
        <mxCell id="761dnnyQ54j-Cl0NHfQN-4403" value="41" style="rounded=0;whiteSpace=wrap;html=1;fontSize=32;" parent="yOzqqhK1axRImjvCnXJV-188" vertex="1">
          <mxGeometry x="630" width="410" height="410" as="geometry" />
        </mxCell>
        <mxCell id="yOzqqhK1axRImjvCnXJV-189" value="" style="group;flipV=1;" vertex="1" connectable="0" parent="1">
          <mxGeometry x="15280" y="4510" width="1480" height="1300" as="geometry" />
        </mxCell>
        <mxCell id="761dnnyQ54j-Cl0NHfQN-4510" value="36" style="rounded=0;whiteSpace=wrap;html=1;fontSize=32;" parent="yOzqqhK1axRImjvCnXJV-189" vertex="1">
          <mxGeometry y="940" width="360" height="360" as="geometry" />
        </mxCell>
        <mxCell id="761dnnyQ54j-Cl0NHfQN-4511" value="40" style="rounded=0;whiteSpace=wrap;html=1;fontSize=32;" parent="yOzqqhK1axRImjvCnXJV-189" vertex="1">
          <mxGeometry x="360" y="900" width="400" height="400" as="geometry" />
        </mxCell>
        <mxCell id="761dnnyQ54j-Cl0NHfQN-4512" value="32" style="rounded=0;whiteSpace=wrap;html=1;fontSize=32;" parent="yOzqqhK1axRImjvCnXJV-189" vertex="1">
          <mxGeometry y="620" width="320" height="320" as="geometry" />
        </mxCell>
        <mxCell id="761dnnyQ54j-Cl0NHfQN-4513" value="4" style="rounded=0;whiteSpace=wrap;html=1;fontSize=32;" parent="yOzqqhK1axRImjvCnXJV-189" vertex="1">
          <mxGeometry x="320" y="900" width="40" height="40" as="geometry" />
        </mxCell>
        <mxCell id="761dnnyQ54j-Cl0NHfQN-4514" value="21" style="rounded=0;whiteSpace=wrap;html=1;fontSize=32;" parent="yOzqqhK1axRImjvCnXJV-189" vertex="1">
          <mxGeometry x="760" y="1090" width="210" height="210" as="geometry" />
        </mxCell>
        <mxCell id="761dnnyQ54j-Cl0NHfQN-4515" value="18" style="rounded=0;whiteSpace=wrap;html=1;fontSize=32;" parent="yOzqqhK1axRImjvCnXJV-189" vertex="1">
          <mxGeometry x="970" y="1120" width="180" height="180" as="geometry" />
        </mxCell>
        <mxCell id="761dnnyQ54j-Cl0NHfQN-4516" value="33" style="rounded=0;whiteSpace=wrap;html=1;fontSize=32;" parent="yOzqqhK1axRImjvCnXJV-189" vertex="1">
          <mxGeometry x="1150" y="970" width="330" height="330" as="geometry" />
        </mxCell>
        <mxCell id="761dnnyQ54j-Cl0NHfQN-4517" value="3" style="rounded=0;whiteSpace=wrap;html=1;fontSize=32;" parent="yOzqqhK1axRImjvCnXJV-189" vertex="1">
          <mxGeometry x="970" y="1090" width="30" height="30" as="geometry" />
        </mxCell>
        <mxCell id="761dnnyQ54j-Cl0NHfQN-4518" value="15" style="rounded=0;whiteSpace=wrap;html=1;fontSize=32;" parent="yOzqqhK1axRImjvCnXJV-189" vertex="1">
          <mxGeometry x="1000" y="970" width="150" height="150" as="geometry" />
        </mxCell>
        <mxCell id="761dnnyQ54j-Cl0NHfQN-4519" value="24" style="rounded=0;whiteSpace=wrap;html=1;fontSize=32;" parent="yOzqqhK1axRImjvCnXJV-189" vertex="1">
          <mxGeometry x="760" y="850" width="240" height="240" as="geometry" />
        </mxCell>
        <mxCell id="761dnnyQ54j-Cl0NHfQN-4520" value="28" style="rounded=0;whiteSpace=wrap;html=1;fontSize=32;" parent="yOzqqhK1axRImjvCnXJV-189" vertex="1">
          <mxGeometry x="320" y="620" width="280" height="280" as="geometry" />
        </mxCell>
        <mxCell id="761dnnyQ54j-Cl0NHfQN-4521" value="11" style="rounded=0;whiteSpace=wrap;html=1;fontSize=32;" parent="yOzqqhK1axRImjvCnXJV-189" vertex="1">
          <mxGeometry x="600" y="790" width="110" height="110" as="geometry" />
        </mxCell>
        <mxCell id="761dnnyQ54j-Cl0NHfQN-4522" value="5" style="rounded=0;whiteSpace=wrap;html=1;fontSize=32;" parent="yOzqqhK1axRImjvCnXJV-189" vertex="1">
          <mxGeometry x="710" y="850" width="50" height="50" as="geometry" />
        </mxCell>
        <mxCell id="761dnnyQ54j-Cl0NHfQN-4523" value="48" style="rounded=0;whiteSpace=wrap;html=1;fontSize=32;" parent="yOzqqhK1axRImjvCnXJV-189" vertex="1">
          <mxGeometry x="1000" y="490" width="480" height="480" as="geometry" />
        </mxCell>
        <mxCell id="761dnnyQ54j-Cl0NHfQN-4524" value="6" style="rounded=0;whiteSpace=wrap;html=1;fontSize=32;" parent="yOzqqhK1axRImjvCnXJV-189" vertex="1">
          <mxGeometry x="710" y="790" width="60" height="60" as="geometry" />
        </mxCell>
        <mxCell id="761dnnyQ54j-Cl0NHfQN-4525" value="23" style="rounded=0;whiteSpace=wrap;html=1;fontSize=32;" parent="yOzqqhK1axRImjvCnXJV-189" vertex="1">
          <mxGeometry x="770" y="620" width="230" height="230" as="geometry" />
        </mxCell>
        <mxCell id="761dnnyQ54j-Cl0NHfQN-4526" value="17" style="rounded=0;whiteSpace=wrap;html=1;fontSize=32;" parent="yOzqqhK1axRImjvCnXJV-189" vertex="1">
          <mxGeometry x="600" y="620" width="170" height="170" as="geometry" />
        </mxCell>
        <mxCell id="761dnnyQ54j-Cl0NHfQN-4527" value="62" style="rounded=0;whiteSpace=wrap;html=1;fontSize=32;" parent="yOzqqhK1axRImjvCnXJV-189" vertex="1">
          <mxGeometry width="620" height="620" as="geometry" />
        </mxCell>
        <mxCell id="761dnnyQ54j-Cl0NHfQN-4528" value="25" style="rounded=0;whiteSpace=wrap;html=1;fontSize=32;" parent="yOzqqhK1axRImjvCnXJV-189" vertex="1">
          <mxGeometry x="620" y="370" width="250" height="250" as="geometry" />
        </mxCell>
        <mxCell id="761dnnyQ54j-Cl0NHfQN-4529" value="13" style="rounded=0;whiteSpace=wrap;html=1;fontSize=32;" parent="yOzqqhK1axRImjvCnXJV-189" vertex="1">
          <mxGeometry x="870" y="490" width="130" height="130" as="geometry" />
        </mxCell>
        <mxCell id="761dnnyQ54j-Cl0NHfQN-4530" value="12" style="rounded=0;whiteSpace=wrap;html=1;fontSize=32;" parent="yOzqqhK1axRImjvCnXJV-189" vertex="1">
          <mxGeometry x="870" y="370" width="120" height="120" as="geometry" />
        </mxCell>
        <mxCell id="761dnnyQ54j-Cl0NHfQN-4531" value="49" style="rounded=0;whiteSpace=wrap;html=1;fontSize=32;" parent="yOzqqhK1axRImjvCnXJV-189" vertex="1">
          <mxGeometry x="990" width="490" height="490" as="geometry" />
        </mxCell>
        <mxCell id="761dnnyQ54j-Cl0NHfQN-4532" value="37" style="rounded=0;whiteSpace=wrap;html=1;fontSize=32;" parent="yOzqqhK1axRImjvCnXJV-189" vertex="1">
          <mxGeometry x="620" width="370" height="370" as="geometry" />
        </mxCell>
        <mxCell id="yOzqqhK1axRImjvCnXJV-190" value="" style="group;flipV=1;" vertex="1" connectable="0" parent="1">
          <mxGeometry x="15340" y="6050" width="1480" height="1360" as="geometry" />
        </mxCell>
        <mxCell id="761dnnyQ54j-Cl0NHfQN-4601" value="61" style="rounded=0;whiteSpace=wrap;html=1;fontSize=32;" parent="yOzqqhK1axRImjvCnXJV-190" vertex="1">
          <mxGeometry y="750" width="610" height="610" as="geometry" />
        </mxCell>
        <mxCell id="761dnnyQ54j-Cl0NHfQN-4602" value="31" style="rounded=0;whiteSpace=wrap;html=1;fontSize=32;" parent="yOzqqhK1axRImjvCnXJV-190" vertex="1">
          <mxGeometry x="610" y="1050" width="310" height="310" as="geometry" />
        </mxCell>
        <mxCell id="761dnnyQ54j-Cl0NHfQN-4603" value="15" style="rounded=0;whiteSpace=wrap;html=1;fontSize=32;" parent="yOzqqhK1axRImjvCnXJV-190" vertex="1">
          <mxGeometry x="920" y="1210" width="150" height="150" as="geometry" />
        </mxCell>
        <mxCell id="761dnnyQ54j-Cl0NHfQN-4604" value="14" style="rounded=0;whiteSpace=wrap;html=1;fontSize=32;" parent="yOzqqhK1axRImjvCnXJV-190" vertex="1">
          <mxGeometry x="1070" y="1220" width="140" height="140" as="geometry" />
        </mxCell>
        <mxCell id="761dnnyQ54j-Cl0NHfQN-4605" value="27" style="rounded=0;whiteSpace=wrap;html=1;fontSize=32;" parent="yOzqqhK1axRImjvCnXJV-190" vertex="1">
          <mxGeometry x="1210" y="1090" width="270" height="270" as="geometry" />
        </mxCell>
        <mxCell id="761dnnyQ54j-Cl0NHfQN-4606" value="1" style="rounded=0;whiteSpace=wrap;html=1;fontSize=32;" parent="yOzqqhK1axRImjvCnXJV-190" vertex="1">
          <mxGeometry x="1070" y="1210" width="10" height="10" as="geometry" />
        </mxCell>
        <mxCell id="761dnnyQ54j-Cl0NHfQN-4607" value="13" style="rounded=0;whiteSpace=wrap;html=1;fontSize=32;" parent="yOzqqhK1axRImjvCnXJV-190" vertex="1">
          <mxGeometry x="1080" y="1090" width="130" height="130" as="geometry" />
        </mxCell>
        <mxCell id="761dnnyQ54j-Cl0NHfQN-4608" value="16" style="rounded=0;whiteSpace=wrap;html=1;fontSize=32;" parent="yOzqqhK1axRImjvCnXJV-190" vertex="1">
          <mxGeometry x="920" y="1050" width="160" height="160" as="geometry" />
        </mxCell>
        <mxCell id="761dnnyQ54j-Cl0NHfQN-4609" value="4" style="rounded=0;whiteSpace=wrap;html=1;fontSize=32;" parent="yOzqqhK1axRImjvCnXJV-190" vertex="1">
          <mxGeometry x="1080" y="1050" width="40" height="40" as="geometry" />
        </mxCell>
        <mxCell id="761dnnyQ54j-Cl0NHfQN-4610" value="36" style="rounded=0;whiteSpace=wrap;html=1;fontSize=32;" parent="yOzqqhK1axRImjvCnXJV-190" vertex="1">
          <mxGeometry x="1120" y="730" width="360" height="360" as="geometry" />
        </mxCell>
        <mxCell id="761dnnyQ54j-Cl0NHfQN-4611" value="19" style="rounded=0;whiteSpace=wrap;html=1;fontSize=32;" parent="yOzqqhK1axRImjvCnXJV-190" vertex="1">
          <mxGeometry x="610" y="860" width="190" height="190" as="geometry" />
        </mxCell>
        <mxCell id="761dnnyQ54j-Cl0NHfQN-4612" value="32" style="rounded=0;whiteSpace=wrap;html=1;fontSize=32;" parent="yOzqqhK1axRImjvCnXJV-190" vertex="1">
          <mxGeometry x="800" y="730" width="320" height="320" as="geometry" />
        </mxCell>
        <mxCell id="761dnnyQ54j-Cl0NHfQN-4613" value="11" style="rounded=0;whiteSpace=wrap;html=1;fontSize=32;" parent="yOzqqhK1axRImjvCnXJV-190" vertex="1">
          <mxGeometry x="610" y="750" width="110" height="110" as="geometry" />
        </mxCell>
        <mxCell id="761dnnyQ54j-Cl0NHfQN-4614" value="8" style="rounded=0;whiteSpace=wrap;html=1;fontSize=32;" parent="yOzqqhK1axRImjvCnXJV-190" vertex="1">
          <mxGeometry x="720" y="780" width="80" height="80" as="geometry" />
        </mxCell>
        <mxCell id="761dnnyQ54j-Cl0NHfQN-4615" value="3" style="rounded=0;whiteSpace=wrap;html=1;fontSize=32;" parent="yOzqqhK1axRImjvCnXJV-190" vertex="1">
          <mxGeometry x="720" y="750" width="30" height="30" as="geometry" />
        </mxCell>
        <mxCell id="761dnnyQ54j-Cl0NHfQN-4616" value="5" style="rounded=0;whiteSpace=wrap;html=1;fontSize=32;" parent="yOzqqhK1axRImjvCnXJV-190" vertex="1">
          <mxGeometry x="750" y="730" width="50" height="50" as="geometry" />
        </mxCell>
        <mxCell id="761dnnyQ54j-Cl0NHfQN-4617" value="75" style="rounded=0;whiteSpace=wrap;html=1;fontSize=32;" parent="yOzqqhK1axRImjvCnXJV-190" vertex="1">
          <mxGeometry width="750" height="750" as="geometry" />
        </mxCell>
        <mxCell id="761dnnyQ54j-Cl0NHfQN-4618" value="73" style="rounded=0;whiteSpace=wrap;html=1;fontSize=32;" parent="yOzqqhK1axRImjvCnXJV-190" vertex="1">
          <mxGeometry x="750" width="730" height="730" as="geometry" />
        </mxCell>
        <mxCell id="yOzqqhK1axRImjvCnXJV-191" value="" style="group;flipV=1;" vertex="1" connectable="0" parent="1">
          <mxGeometry x="15370" y="7710" width="1480" height="1060" as="geometry" />
        </mxCell>
        <mxCell id="761dnnyQ54j-Cl0NHfQN-4704" value="47" style="rounded=0;whiteSpace=wrap;html=1;fontSize=32;" parent="yOzqqhK1axRImjvCnXJV-191" vertex="1">
          <mxGeometry y="590" width="470" height="470" as="geometry" />
        </mxCell>
        <mxCell id="761dnnyQ54j-Cl0NHfQN-4705" value="35" style="rounded=0;whiteSpace=wrap;html=1;fontSize=32;" parent="yOzqqhK1axRImjvCnXJV-191" vertex="1">
          <mxGeometry x="470" y="710" width="350" height="350" as="geometry" />
        </mxCell>
        <mxCell id="761dnnyQ54j-Cl0NHfQN-4706" value="30" style="rounded=0;whiteSpace=wrap;html=1;fontSize=32;" parent="yOzqqhK1axRImjvCnXJV-191" vertex="1">
          <mxGeometry x="820" y="760" width="300" height="300" as="geometry" />
        </mxCell>
        <mxCell id="761dnnyQ54j-Cl0NHfQN-4707" value="36" style="rounded=0;whiteSpace=wrap;html=1;fontSize=32;" parent="yOzqqhK1axRImjvCnXJV-191" vertex="1">
          <mxGeometry x="1120" y="700" width="360" height="360" as="geometry" />
        </mxCell>
        <mxCell id="761dnnyQ54j-Cl0NHfQN-4708" value="5" style="rounded=0;whiteSpace=wrap;html=1;fontSize=32;" parent="yOzqqhK1axRImjvCnXJV-191" vertex="1">
          <mxGeometry x="820" y="710" width="50" height="50" as="geometry" />
        </mxCell>
        <mxCell id="761dnnyQ54j-Cl0NHfQN-4709" value="18" style="rounded=0;whiteSpace=wrap;html=1;fontSize=32;" parent="yOzqqhK1axRImjvCnXJV-191" vertex="1">
          <mxGeometry x="870" y="580" width="180" height="180" as="geometry" />
        </mxCell>
        <mxCell id="761dnnyQ54j-Cl0NHfQN-4710" value="7" style="rounded=0;whiteSpace=wrap;html=1;fontSize=32;" parent="yOzqqhK1axRImjvCnXJV-191" vertex="1">
          <mxGeometry x="1050" y="690" width="70" height="70" as="geometry" />
        </mxCell>
        <mxCell id="761dnnyQ54j-Cl0NHfQN-4711" value="1" style="rounded=0;whiteSpace=wrap;html=1;fontSize=32;" parent="yOzqqhK1axRImjvCnXJV-191" vertex="1">
          <mxGeometry x="1120" y="690" width="10" height="10" as="geometry" />
        </mxCell>
        <mxCell id="761dnnyQ54j-Cl0NHfQN-4712" value="11" style="rounded=0;whiteSpace=wrap;html=1;fontSize=32;" parent="yOzqqhK1axRImjvCnXJV-191" vertex="1">
          <mxGeometry x="1130" y="590" width="110" height="110" as="geometry" />
        </mxCell>
        <mxCell id="761dnnyQ54j-Cl0NHfQN-4713" value="8" style="rounded=0;whiteSpace=wrap;html=1;fontSize=32;" parent="yOzqqhK1axRImjvCnXJV-191" vertex="1">
          <mxGeometry x="1050" y="610" width="80" height="80" as="geometry" />
        </mxCell>
        <mxCell id="761dnnyQ54j-Cl0NHfQN-4714" value="6" style="rounded=0;whiteSpace=wrap;html=1;fontSize=32;" parent="yOzqqhK1axRImjvCnXJV-191" vertex="1">
          <mxGeometry x="1050" y="550" width="60" height="60" as="geometry" />
        </mxCell>
        <mxCell id="761dnnyQ54j-Cl0NHfQN-4715" value="2" style="rounded=0;whiteSpace=wrap;html=1;fontSize=32;" parent="yOzqqhK1axRImjvCnXJV-191" vertex="1">
          <mxGeometry x="1110" y="590" width="20" height="20" as="geometry" />
        </mxCell>
        <mxCell id="761dnnyQ54j-Cl0NHfQN-4716" value="24" style="rounded=0;whiteSpace=wrap;html=1;fontSize=32;" parent="yOzqqhK1axRImjvCnXJV-191" vertex="1">
          <mxGeometry x="1240" y="460" width="240" height="240" as="geometry" />
        </mxCell>
        <mxCell id="761dnnyQ54j-Cl0NHfQN-4717" value="13" style="rounded=0;whiteSpace=wrap;html=1;fontSize=32;" parent="yOzqqhK1axRImjvCnXJV-191" vertex="1">
          <mxGeometry x="1110" y="460" width="130" height="130" as="geometry" />
        </mxCell>
        <mxCell id="761dnnyQ54j-Cl0NHfQN-4718" value="12" style="rounded=0;whiteSpace=wrap;html=1;fontSize=32;" parent="yOzqqhK1axRImjvCnXJV-191" vertex="1">
          <mxGeometry x="470" y="590" width="120" height="120" as="geometry" />
        </mxCell>
        <mxCell id="761dnnyQ54j-Cl0NHfQN-4719" value="28" style="rounded=0;whiteSpace=wrap;html=1;fontSize=32;" parent="yOzqqhK1axRImjvCnXJV-191" vertex="1">
          <mxGeometry x="590" y="430" width="280" height="280" as="geometry" />
        </mxCell>
        <mxCell id="761dnnyQ54j-Cl0NHfQN-4720" value="15" style="rounded=0;whiteSpace=wrap;html=1;fontSize=32;" parent="yOzqqhK1axRImjvCnXJV-191" vertex="1">
          <mxGeometry x="870" y="430" width="150" height="150" as="geometry" />
        </mxCell>
        <mxCell id="761dnnyQ54j-Cl0NHfQN-4721" value="3" style="rounded=0;whiteSpace=wrap;html=1;fontSize=32;" parent="yOzqqhK1axRImjvCnXJV-191" vertex="1">
          <mxGeometry x="1020" y="550" width="30" height="30" as="geometry" />
        </mxCell>
        <mxCell id="761dnnyQ54j-Cl0NHfQN-4722" value="9" style="rounded=0;whiteSpace=wrap;html=1;fontSize=32;" parent="yOzqqhK1axRImjvCnXJV-191" vertex="1">
          <mxGeometry x="1020" y="460" width="90" height="90" as="geometry" />
        </mxCell>
        <mxCell id="761dnnyQ54j-Cl0NHfQN-4723" value="46" style="rounded=0;whiteSpace=wrap;html=1;fontSize=32;" parent="yOzqqhK1axRImjvCnXJV-191" vertex="1">
          <mxGeometry x="1020" width="460" height="460" as="geometry" />
        </mxCell>
        <mxCell id="761dnnyQ54j-Cl0NHfQN-4724" value="59" style="rounded=0;whiteSpace=wrap;html=1;fontSize=32;" parent="yOzqqhK1axRImjvCnXJV-191" vertex="1">
          <mxGeometry width="590" height="590" as="geometry" />
        </mxCell>
        <mxCell id="761dnnyQ54j-Cl0NHfQN-4725" value="43" style="rounded=0;whiteSpace=wrap;html=1;fontSize=32;" parent="yOzqqhK1axRImjvCnXJV-191" vertex="1">
          <mxGeometry x="590" width="430" height="430" as="geometry" />
        </mxCell>
        <mxCell id="yOzqqhK1axRImjvCnXJV-192" value="" style="group;flipV=1;" vertex="1" connectable="0" parent="1">
          <mxGeometry x="15340" y="8970" width="1480" height="1440" as="geometry" />
        </mxCell>
        <mxCell id="761dnnyQ54j-Cl0NHfQN-4772" value="56" style="rounded=0;whiteSpace=wrap;html=1;fontSize=32;" parent="yOzqqhK1axRImjvCnXJV-192" vertex="1">
          <mxGeometry y="880" width="560" height="560" as="geometry" />
        </mxCell>
        <mxCell id="761dnnyQ54j-Cl0NHfQN-4773" value="33" style="rounded=0;whiteSpace=wrap;html=1;fontSize=32;" parent="yOzqqhK1axRImjvCnXJV-192" vertex="1">
          <mxGeometry x="560" y="1110" width="330" height="330" as="geometry" />
        </mxCell>
        <mxCell id="761dnnyQ54j-Cl0NHfQN-4774" value="35" style="rounded=0;whiteSpace=wrap;html=1;fontSize=32;" parent="yOzqqhK1axRImjvCnXJV-192" vertex="1">
          <mxGeometry x="890" y="1090" width="350" height="350" as="geometry" />
        </mxCell>
        <mxCell id="761dnnyQ54j-Cl0NHfQN-4775" value="24" style="rounded=0;whiteSpace=wrap;html=1;fontSize=32;" parent="yOzqqhK1axRImjvCnXJV-192" vertex="1">
          <mxGeometry x="1240" y="1200" width="240" height="240" as="geometry" />
        </mxCell>
        <mxCell id="761dnnyQ54j-Cl0NHfQN-4776" value="11" style="rounded=0;whiteSpace=wrap;html=1;fontSize=32;" parent="yOzqqhK1axRImjvCnXJV-192" vertex="1">
          <mxGeometry x="1240" y="1090" width="110" height="110" as="geometry" />
        </mxCell>
        <mxCell id="761dnnyQ54j-Cl0NHfQN-4777" value="13" style="rounded=0;whiteSpace=wrap;html=1;fontSize=32;" parent="yOzqqhK1axRImjvCnXJV-192" vertex="1">
          <mxGeometry x="1350" y="1070" width="130" height="130" as="geometry" />
        </mxCell>
        <mxCell id="761dnnyQ54j-Cl0NHfQN-4778" value="23" style="rounded=0;whiteSpace=wrap;html=1;fontSize=32;" parent="yOzqqhK1axRImjvCnXJV-192" vertex="1">
          <mxGeometry x="560" y="880" width="230" height="230" as="geometry" />
        </mxCell>
        <mxCell id="761dnnyQ54j-Cl0NHfQN-4779" value="7" style="rounded=0;whiteSpace=wrap;html=1;fontSize=32;" parent="yOzqqhK1axRImjvCnXJV-192" vertex="1">
          <mxGeometry x="790" y="1040" width="70" height="70" as="geometry" />
        </mxCell>
        <mxCell id="761dnnyQ54j-Cl0NHfQN-4780" value="3" style="rounded=0;whiteSpace=wrap;html=1;fontSize=32;" parent="yOzqqhK1axRImjvCnXJV-192" vertex="1">
          <mxGeometry x="860" y="1080" width="30" height="30" as="geometry" />
        </mxCell>
        <mxCell id="761dnnyQ54j-Cl0NHfQN-4781" value="1" style="rounded=0;whiteSpace=wrap;html=1;fontSize=32;" parent="yOzqqhK1axRImjvCnXJV-192" vertex="1">
          <mxGeometry x="890" y="1080" width="10" height="10" as="geometry" />
        </mxCell>
        <mxCell id="761dnnyQ54j-Cl0NHfQN-4782" value="5" style="rounded=0;whiteSpace=wrap;html=1;fontSize=32;" parent="yOzqqhK1axRImjvCnXJV-192" vertex="1">
          <mxGeometry x="900" y="1040" width="50" height="50" as="geometry" />
        </mxCell>
        <mxCell id="761dnnyQ54j-Cl0NHfQN-4783" value="4" style="rounded=0;whiteSpace=wrap;html=1;fontSize=32;" parent="yOzqqhK1axRImjvCnXJV-192" vertex="1">
          <mxGeometry x="860" y="1040" width="40" height="40" as="geometry" />
        </mxCell>
        <mxCell id="761dnnyQ54j-Cl0NHfQN-4784" value="21" style="rounded=0;whiteSpace=wrap;html=1;fontSize=32;" parent="yOzqqhK1axRImjvCnXJV-192" vertex="1">
          <mxGeometry x="950" y="880" width="210" height="210" as="geometry" />
        </mxCell>
        <mxCell id="761dnnyQ54j-Cl0NHfQN-4785" value="16" style="rounded=0;whiteSpace=wrap;html=1;fontSize=32;" parent="yOzqqhK1axRImjvCnXJV-192" vertex="1">
          <mxGeometry x="790" y="880" width="160" height="160" as="geometry" />
        </mxCell>
        <mxCell id="761dnnyQ54j-Cl0NHfQN-4786" value="17" style="rounded=0;whiteSpace=wrap;html=1;fontSize=32;" parent="yOzqqhK1axRImjvCnXJV-192" vertex="1">
          <mxGeometry x="1160" y="920" width="170" height="170" as="geometry" />
        </mxCell>
        <mxCell id="761dnnyQ54j-Cl0NHfQN-4787" value="2" style="rounded=0;whiteSpace=wrap;html=1;fontSize=32;" parent="yOzqqhK1axRImjvCnXJV-192" vertex="1">
          <mxGeometry x="1330" y="1070" width="20" height="20" as="geometry" />
        </mxCell>
        <mxCell id="761dnnyQ54j-Cl0NHfQN-4788" value="15" style="rounded=0;whiteSpace=wrap;html=1;fontSize=32;" parent="yOzqqhK1axRImjvCnXJV-192" vertex="1">
          <mxGeometry x="1330" y="920" width="150" height="150" as="geometry" />
        </mxCell>
        <mxCell id="761dnnyQ54j-Cl0NHfQN-4789" value="32" style="rounded=0;whiteSpace=wrap;html=1;fontSize=32;" parent="yOzqqhK1axRImjvCnXJV-192" vertex="1">
          <mxGeometry x="1160" y="600" width="320" height="320" as="geometry" />
        </mxCell>
        <mxCell id="761dnnyQ54j-Cl0NHfQN-4790" value="88" style="rounded=0;whiteSpace=wrap;html=1;fontSize=32;" parent="yOzqqhK1axRImjvCnXJV-192" vertex="1">
          <mxGeometry width="880" height="880" as="geometry" />
        </mxCell>
        <mxCell id="761dnnyQ54j-Cl0NHfQN-4791" value="28" style="rounded=0;whiteSpace=wrap;html=1;fontSize=32;" parent="yOzqqhK1axRImjvCnXJV-192" vertex="1">
          <mxGeometry x="880" y="600" width="280" height="280" as="geometry" />
        </mxCell>
        <mxCell id="761dnnyQ54j-Cl0NHfQN-4792" value="60" style="rounded=0;whiteSpace=wrap;html=1;fontSize=32;" parent="yOzqqhK1axRImjvCnXJV-192" vertex="1">
          <mxGeometry x="880" width="600" height="600" as="geometry" />
        </mxCell>
        <mxCell id="yOzqqhK1axRImjvCnXJV-193" value="" style="group;flipV=1;" vertex="1" connectable="0" parent="1">
          <mxGeometry x="15320" y="10570" width="1480" height="1440" as="geometry" />
        </mxCell>
        <mxCell id="761dnnyQ54j-Cl0NHfQN-4861" value="55" style="rounded=0;whiteSpace=wrap;html=1;fontSize=32;" parent="yOzqqhK1axRImjvCnXJV-193" vertex="1">
          <mxGeometry y="890" width="550" height="550" as="geometry" />
        </mxCell>
        <mxCell id="761dnnyQ54j-Cl0NHfQN-4862" value="31" style="rounded=0;whiteSpace=wrap;html=1;fontSize=32;" parent="yOzqqhK1axRImjvCnXJV-193" vertex="1">
          <mxGeometry x="550" y="1130" width="310" height="310" as="geometry" />
        </mxCell>
        <mxCell id="761dnnyQ54j-Cl0NHfQN-4863" value="26" style="rounded=0;whiteSpace=wrap;html=1;fontSize=32;" parent="yOzqqhK1axRImjvCnXJV-193" vertex="1">
          <mxGeometry x="860" y="1180" width="260" height="260" as="geometry" />
        </mxCell>
        <mxCell id="761dnnyQ54j-Cl0NHfQN-4864" value="36" style="rounded=0;whiteSpace=wrap;html=1;fontSize=32;" parent="yOzqqhK1axRImjvCnXJV-193" vertex="1">
          <mxGeometry x="1120" y="1080" width="360" height="360" as="geometry" />
        </mxCell>
        <mxCell id="761dnnyQ54j-Cl0NHfQN-4865" value="12" style="rounded=0;whiteSpace=wrap;html=1;fontSize=32;" parent="yOzqqhK1axRImjvCnXJV-193" vertex="1">
          <mxGeometry x="860" y="1060" width="120" height="120" as="geometry" />
        </mxCell>
        <mxCell id="761dnnyQ54j-Cl0NHfQN-4866" value="14" style="rounded=0;whiteSpace=wrap;html=1;fontSize=32;" parent="yOzqqhK1axRImjvCnXJV-193" vertex="1">
          <mxGeometry x="980" y="1040" width="140" height="140" as="geometry" />
        </mxCell>
        <mxCell id="761dnnyQ54j-Cl0NHfQN-4867" value="24" style="rounded=0;whiteSpace=wrap;html=1;fontSize=32;" parent="yOzqqhK1axRImjvCnXJV-193" vertex="1">
          <mxGeometry x="550" y="890" width="240" height="240" as="geometry" />
        </mxCell>
        <mxCell id="761dnnyQ54j-Cl0NHfQN-4868" value="7" style="rounded=0;whiteSpace=wrap;html=1;fontSize=32;" parent="yOzqqhK1axRImjvCnXJV-193" vertex="1">
          <mxGeometry x="790" y="1060" width="70" height="70" as="geometry" />
        </mxCell>
        <mxCell id="761dnnyQ54j-Cl0NHfQN-4869" value="17" style="rounded=0;whiteSpace=wrap;html=1;fontSize=32;" parent="yOzqqhK1axRImjvCnXJV-193" vertex="1">
          <mxGeometry x="790" y="890" width="170" height="170" as="geometry" />
        </mxCell>
        <mxCell id="761dnnyQ54j-Cl0NHfQN-4870" value="2" style="rounded=0;whiteSpace=wrap;html=1;fontSize=32;" parent="yOzqqhK1axRImjvCnXJV-193" vertex="1">
          <mxGeometry x="960" y="1040" width="20" height="20" as="geometry" />
        </mxCell>
        <mxCell id="761dnnyQ54j-Cl0NHfQN-4871" value="5" style="rounded=0;whiteSpace=wrap;html=1;fontSize=32;" parent="yOzqqhK1axRImjvCnXJV-193" vertex="1">
          <mxGeometry x="1120" y="1030" width="50" height="50" as="geometry" />
        </mxCell>
        <mxCell id="761dnnyQ54j-Cl0NHfQN-4872" value="15" style="rounded=0;whiteSpace=wrap;html=1;fontSize=32;" parent="yOzqqhK1axRImjvCnXJV-193" vertex="1">
          <mxGeometry x="960" y="890" width="150" height="150" as="geometry" />
        </mxCell>
        <mxCell id="761dnnyQ54j-Cl0NHfQN-4873" value="1" style="rounded=0;whiteSpace=wrap;html=1;fontSize=32;" parent="yOzqqhK1axRImjvCnXJV-193" vertex="1">
          <mxGeometry x="1110" y="1030" width="10" height="10" as="geometry" />
        </mxCell>
        <mxCell id="761dnnyQ54j-Cl0NHfQN-4874" value="11" style="rounded=0;whiteSpace=wrap;html=1;fontSize=32;" parent="yOzqqhK1axRImjvCnXJV-193" vertex="1">
          <mxGeometry x="1170" y="970" width="110" height="110" as="geometry" />
        </mxCell>
        <mxCell id="761dnnyQ54j-Cl0NHfQN-4875" value="6" style="rounded=0;whiteSpace=wrap;html=1;fontSize=32;" parent="yOzqqhK1axRImjvCnXJV-193" vertex="1">
          <mxGeometry x="1110" y="970" width="60" height="60" as="geometry" />
        </mxCell>
        <mxCell id="761dnnyQ54j-Cl0NHfQN-4876" value="20" style="rounded=0;whiteSpace=wrap;html=1;fontSize=32;" parent="yOzqqhK1axRImjvCnXJV-193" vertex="1">
          <mxGeometry x="1280" y="880" width="200" height="200" as="geometry" />
        </mxCell>
        <mxCell id="761dnnyQ54j-Cl0NHfQN-4877" value="8" style="rounded=0;whiteSpace=wrap;html=1;fontSize=32;" parent="yOzqqhK1axRImjvCnXJV-193" vertex="1">
          <mxGeometry x="1110" y="890" width="80" height="80" as="geometry" />
        </mxCell>
        <mxCell id="761dnnyQ54j-Cl0NHfQN-4878" value="9" style="rounded=0;whiteSpace=wrap;html=1;fontSize=32;" parent="yOzqqhK1axRImjvCnXJV-193" vertex="1">
          <mxGeometry x="1190" y="880" width="90" height="90" as="geometry" />
        </mxCell>
        <mxCell id="761dnnyQ54j-Cl0NHfQN-4879" value="89" style="rounded=0;whiteSpace=wrap;html=1;fontSize=32;" parent="yOzqqhK1axRImjvCnXJV-193" vertex="1">
          <mxGeometry width="890" height="890" as="geometry" />
        </mxCell>
        <mxCell id="761dnnyQ54j-Cl0NHfQN-4880" value="30" style="rounded=0;whiteSpace=wrap;html=1;fontSize=32;" parent="yOzqqhK1axRImjvCnXJV-193" vertex="1">
          <mxGeometry x="890" y="590" width="300" height="300" as="geometry" />
        </mxCell>
        <mxCell id="761dnnyQ54j-Cl0NHfQN-4881" value="29" style="rounded=0;whiteSpace=wrap;html=1;fontSize=32;" parent="yOzqqhK1axRImjvCnXJV-193" vertex="1">
          <mxGeometry x="1190" y="590" width="290" height="290" as="geometry" />
        </mxCell>
        <mxCell id="761dnnyQ54j-Cl0NHfQN-4882" value="59" style="rounded=0;whiteSpace=wrap;html=1;fontSize=32;" parent="yOzqqhK1axRImjvCnXJV-193" vertex="1">
          <mxGeometry x="890" width="590" height="590" as="geometry" />
        </mxCell>
        <mxCell id="yOzqqhK1axRImjvCnXJV-194" value="" style="group;flipV=1;" vertex="1" connectable="0" parent="1">
          <mxGeometry x="15320" y="12230" width="1480" height="1470" as="geometry" />
        </mxCell>
        <mxCell id="761dnnyQ54j-Cl0NHfQN-4953" value="44" style="rounded=0;whiteSpace=wrap;html=1;fontSize=32;" parent="yOzqqhK1axRImjvCnXJV-194" vertex="1">
          <mxGeometry y="1030" width="440" height="440" as="geometry" />
        </mxCell>
        <mxCell id="761dnnyQ54j-Cl0NHfQN-4954" value="41" style="rounded=0;whiteSpace=wrap;html=1;fontSize=32;" parent="yOzqqhK1axRImjvCnXJV-194" vertex="1">
          <mxGeometry x="440" y="1060" width="410" height="410" as="geometry" />
        </mxCell>
        <mxCell id="761dnnyQ54j-Cl0NHfQN-4955" value="32" style="rounded=0;whiteSpace=wrap;html=1;fontSize=32;" parent="yOzqqhK1axRImjvCnXJV-194" vertex="1">
          <mxGeometry x="850" y="1150" width="320" height="320" as="geometry" />
        </mxCell>
        <mxCell id="761dnnyQ54j-Cl0NHfQN-4956" value="31" style="rounded=0;whiteSpace=wrap;html=1;fontSize=32;" parent="yOzqqhK1axRImjvCnXJV-194" vertex="1">
          <mxGeometry x="1170" y="1160" width="310" height="310" as="geometry" />
        </mxCell>
        <mxCell id="761dnnyQ54j-Cl0NHfQN-4957" value="8" style="rounded=0;whiteSpace=wrap;html=1;fontSize=32;" parent="yOzqqhK1axRImjvCnXJV-194" vertex="1">
          <mxGeometry x="1170" y="1080" width="80" height="80" as="geometry" />
        </mxCell>
        <mxCell id="761dnnyQ54j-Cl0NHfQN-4958" value="23" style="rounded=0;whiteSpace=wrap;html=1;fontSize=32;" parent="yOzqqhK1axRImjvCnXJV-194" vertex="1">
          <mxGeometry x="1250" y="930" width="230" height="230" as="geometry" />
        </mxCell>
        <mxCell id="761dnnyQ54j-Cl0NHfQN-4959" value="25" style="rounded=0;whiteSpace=wrap;html=1;fontSize=32;" parent="yOzqqhK1axRImjvCnXJV-194" vertex="1">
          <mxGeometry x="850" y="900" width="250" height="250" as="geometry" />
        </mxCell>
        <mxCell id="761dnnyQ54j-Cl0NHfQN-4960" value="7" style="rounded=0;whiteSpace=wrap;html=1;fontSize=32;" parent="yOzqqhK1axRImjvCnXJV-194" vertex="1">
          <mxGeometry x="1100" y="1080" width="70" height="70" as="geometry" />
        </mxCell>
        <mxCell id="761dnnyQ54j-Cl0NHfQN-4961" value="15" style="rounded=0;whiteSpace=wrap;html=1;fontSize=32;" parent="yOzqqhK1axRImjvCnXJV-194" vertex="1">
          <mxGeometry x="1100" y="930" width="150" height="150" as="geometry" />
        </mxCell>
        <mxCell id="761dnnyQ54j-Cl0NHfQN-4962" value="38" style="rounded=0;whiteSpace=wrap;html=1;fontSize=32;" parent="yOzqqhK1axRImjvCnXJV-194" vertex="1">
          <mxGeometry x="1100" y="550" width="380" height="380" as="geometry" />
        </mxCell>
        <mxCell id="761dnnyQ54j-Cl0NHfQN-4963" value="3" style="rounded=0;whiteSpace=wrap;html=1;fontSize=32;" parent="yOzqqhK1axRImjvCnXJV-194" vertex="1">
          <mxGeometry x="440" y="1030" width="30" height="30" as="geometry" />
        </mxCell>
        <mxCell id="761dnnyQ54j-Cl0NHfQN-4964" value="22" style="rounded=0;whiteSpace=wrap;html=1;fontSize=32;" parent="yOzqqhK1axRImjvCnXJV-194" vertex="1">
          <mxGeometry x="470" y="840" width="220" height="220" as="geometry" />
        </mxCell>
        <mxCell id="761dnnyQ54j-Cl0NHfQN-4965" value="16" style="rounded=0;whiteSpace=wrap;html=1;fontSize=32;" parent="yOzqqhK1axRImjvCnXJV-194" vertex="1">
          <mxGeometry x="690" y="900" width="160" height="160" as="geometry" />
        </mxCell>
        <mxCell id="761dnnyQ54j-Cl0NHfQN-4966" value="6" style="rounded=0;whiteSpace=wrap;html=1;fontSize=32;" parent="yOzqqhK1axRImjvCnXJV-194" vertex="1">
          <mxGeometry x="690" y="840" width="60" height="60" as="geometry" />
        </mxCell>
        <mxCell id="761dnnyQ54j-Cl0NHfQN-4967" value="35" style="rounded=0;whiteSpace=wrap;html=1;fontSize=32;" parent="yOzqqhK1axRImjvCnXJV-194" vertex="1">
          <mxGeometry x="750" y="550" width="350" height="350" as="geometry" />
        </mxCell>
        <mxCell id="761dnnyQ54j-Cl0NHfQN-4968" value="47" style="rounded=0;whiteSpace=wrap;html=1;fontSize=32;" parent="yOzqqhK1axRImjvCnXJV-194" vertex="1">
          <mxGeometry y="560" width="470" height="470" as="geometry" />
        </mxCell>
        <mxCell id="761dnnyQ54j-Cl0NHfQN-4969" value="28" style="rounded=0;whiteSpace=wrap;html=1;fontSize=32;" parent="yOzqqhK1axRImjvCnXJV-194" vertex="1">
          <mxGeometry x="470" y="560" width="280" height="280" as="geometry" />
        </mxCell>
        <mxCell id="761dnnyQ54j-Cl0NHfQN-4970" value="56" style="rounded=0;whiteSpace=wrap;html=1;fontSize=32;" parent="yOzqqhK1axRImjvCnXJV-194" vertex="1">
          <mxGeometry width="560" height="560" as="geometry" />
        </mxCell>
        <mxCell id="761dnnyQ54j-Cl0NHfQN-4971" value="19" style="rounded=0;whiteSpace=wrap;html=1;fontSize=32;" parent="yOzqqhK1axRImjvCnXJV-194" vertex="1">
          <mxGeometry x="560" y="370" width="190" height="190" as="geometry" />
        </mxCell>
        <mxCell id="761dnnyQ54j-Cl0NHfQN-4972" value="18" style="rounded=0;whiteSpace=wrap;html=1;fontSize=32;" parent="yOzqqhK1axRImjvCnXJV-194" vertex="1">
          <mxGeometry x="750" y="370" width="180" height="180" as="geometry" />
        </mxCell>
        <mxCell id="761dnnyQ54j-Cl0NHfQN-4973" value="55" style="rounded=0;whiteSpace=wrap;html=1;fontSize=32;" parent="yOzqqhK1axRImjvCnXJV-194" vertex="1">
          <mxGeometry x="930" width="550" height="550" as="geometry" />
        </mxCell>
        <mxCell id="761dnnyQ54j-Cl0NHfQN-4974" value="37" style="rounded=0;whiteSpace=wrap;html=1;fontSize=32;" parent="yOzqqhK1axRImjvCnXJV-194" vertex="1">
          <mxGeometry x="560" width="370" height="370" as="geometry" />
        </mxCell>
        <mxCell id="yOzqqhK1axRImjvCnXJV-195" value="" style="group;flipV=1;" vertex="1" connectable="0" parent="1">
          <mxGeometry x="15290" y="13870" width="1480" height="900" as="geometry" />
        </mxCell>
        <mxCell id="761dnnyQ54j-Cl0NHfQN-5022" value="40" style="rounded=0;whiteSpace=wrap;html=1;fontSize=32;" parent="yOzqqhK1axRImjvCnXJV-195" vertex="1">
          <mxGeometry y="500" width="400" height="400" as="geometry" />
        </mxCell>
        <mxCell id="761dnnyQ54j-Cl0NHfQN-5023" value="30" style="rounded=0;whiteSpace=wrap;html=1;fontSize=32;" parent="yOzqqhK1axRImjvCnXJV-195" vertex="1">
          <mxGeometry x="400" y="600" width="300" height="300" as="geometry" />
        </mxCell>
        <mxCell id="761dnnyQ54j-Cl0NHfQN-5024" value="29" style="rounded=0;whiteSpace=wrap;html=1;fontSize=32;" parent="yOzqqhK1axRImjvCnXJV-195" vertex="1">
          <mxGeometry x="700" y="610" width="290" height="290" as="geometry" />
        </mxCell>
        <mxCell id="761dnnyQ54j-Cl0NHfQN-5025" value="49" style="rounded=0;whiteSpace=wrap;html=1;fontSize=32;" parent="yOzqqhK1axRImjvCnXJV-195" vertex="1">
          <mxGeometry x="990" y="410" width="490" height="490" as="geometry" />
        </mxCell>
        <mxCell id="761dnnyQ54j-Cl0NHfQN-5026" value="1" style="rounded=0;whiteSpace=wrap;html=1;fontSize=32;" parent="yOzqqhK1axRImjvCnXJV-195" vertex="1">
          <mxGeometry x="700" y="600" width="10" height="10" as="geometry" />
        </mxCell>
        <mxCell id="761dnnyQ54j-Cl0NHfQN-5027" value="28" style="rounded=0;whiteSpace=wrap;html=1;fontSize=32;" parent="yOzqqhK1axRImjvCnXJV-195" vertex="1">
          <mxGeometry x="710" y="330" width="280" height="280" as="geometry" />
        </mxCell>
        <mxCell id="761dnnyQ54j-Cl0NHfQN-5028" value="10" style="rounded=0;whiteSpace=wrap;html=1;fontSize=32;" parent="yOzqqhK1axRImjvCnXJV-195" vertex="1">
          <mxGeometry x="400" y="500" width="100" height="100" as="geometry" />
        </mxCell>
        <mxCell id="761dnnyQ54j-Cl0NHfQN-5029" value="21" style="rounded=0;whiteSpace=wrap;html=1;fontSize=32;" parent="yOzqqhK1axRImjvCnXJV-195" vertex="1">
          <mxGeometry x="500" y="390" width="210" height="210" as="geometry" />
        </mxCell>
        <mxCell id="761dnnyQ54j-Cl0NHfQN-5030" value="8" style="rounded=0;whiteSpace=wrap;html=1;fontSize=32;" parent="yOzqqhK1axRImjvCnXJV-195" vertex="1">
          <mxGeometry x="990" y="330" width="80" height="80" as="geometry" />
        </mxCell>
        <mxCell id="761dnnyQ54j-Cl0NHfQN-5031" value="41" style="rounded=0;whiteSpace=wrap;html=1;fontSize=32;" parent="yOzqqhK1axRImjvCnXJV-195" vertex="1">
          <mxGeometry x="1070" width="410" height="410" as="geometry" />
        </mxCell>
        <mxCell id="761dnnyQ54j-Cl0NHfQN-5032" value="50" style="rounded=0;whiteSpace=wrap;html=1;fontSize=32;" parent="yOzqqhK1axRImjvCnXJV-195" vertex="1">
          <mxGeometry width="500" height="500" as="geometry" />
        </mxCell>
        <mxCell id="761dnnyQ54j-Cl0NHfQN-5033" value="15" style="rounded=0;whiteSpace=wrap;html=1;fontSize=32;" parent="yOzqqhK1axRImjvCnXJV-195" vertex="1">
          <mxGeometry x="500" y="240" width="150" height="150" as="geometry" />
        </mxCell>
        <mxCell id="761dnnyQ54j-Cl0NHfQN-5034" value="6" style="rounded=0;whiteSpace=wrap;html=1;fontSize=32;" parent="yOzqqhK1axRImjvCnXJV-195" vertex="1">
          <mxGeometry x="650" y="330" width="60" height="60" as="geometry" />
        </mxCell>
        <mxCell id="761dnnyQ54j-Cl0NHfQN-5035" value="9" style="rounded=0;whiteSpace=wrap;html=1;fontSize=32;" parent="yOzqqhK1axRImjvCnXJV-195" vertex="1">
          <mxGeometry x="650" y="240" width="90" height="90" as="geometry" />
        </mxCell>
        <mxCell id="761dnnyQ54j-Cl0NHfQN-5036" value="33" style="rounded=0;whiteSpace=wrap;html=1;fontSize=32;" parent="yOzqqhK1axRImjvCnXJV-195" vertex="1">
          <mxGeometry x="740" width="330" height="330" as="geometry" />
        </mxCell>
        <mxCell id="761dnnyQ54j-Cl0NHfQN-5037" value="24" style="rounded=0;whiteSpace=wrap;html=1;fontSize=32;" parent="yOzqqhK1axRImjvCnXJV-195" vertex="1">
          <mxGeometry x="500" width="240" height="240" as="geometry" />
        </mxCell>
        <mxCell id="yOzqqhK1axRImjvCnXJV-196" value="" style="group;flipV=1;" vertex="1" connectable="0" parent="1">
          <mxGeometry x="15320" y="14910" width="1480" height="1120" as="geometry" />
        </mxCell>
        <mxCell id="761dnnyQ54j-Cl0NHfQN-5090" value="28" style="rounded=0;whiteSpace=wrap;html=1;fontSize=32;" parent="yOzqqhK1axRImjvCnXJV-196" vertex="1">
          <mxGeometry y="840" width="280" height="280" as="geometry" />
        </mxCell>
        <mxCell id="761dnnyQ54j-Cl0NHfQN-5091" value="13" style="rounded=0;whiteSpace=wrap;html=1;fontSize=32;" parent="yOzqqhK1axRImjvCnXJV-196" vertex="1">
          <mxGeometry x="280" y="990" width="130" height="130" as="geometry" />
        </mxCell>
        <mxCell id="761dnnyQ54j-Cl0NHfQN-5092" value="19" style="rounded=0;whiteSpace=wrap;html=1;fontSize=32;" parent="yOzqqhK1axRImjvCnXJV-196" vertex="1">
          <mxGeometry x="410" y="930" width="190" height="190" as="geometry" />
        </mxCell>
        <mxCell id="761dnnyQ54j-Cl0NHfQN-5093" value="7" style="rounded=0;whiteSpace=wrap;html=1;fontSize=32;" parent="yOzqqhK1axRImjvCnXJV-196" vertex="1">
          <mxGeometry x="280" y="920" width="70" height="70" as="geometry" />
        </mxCell>
        <mxCell id="761dnnyQ54j-Cl0NHfQN-5094" value="6" style="rounded=0;whiteSpace=wrap;html=1;fontSize=32;" parent="yOzqqhK1axRImjvCnXJV-196" vertex="1">
          <mxGeometry x="350" y="930" width="60" height="60" as="geometry" />
        </mxCell>
        <mxCell id="761dnnyQ54j-Cl0NHfQN-5095" value="43" style="rounded=0;whiteSpace=wrap;html=1;fontSize=32;" parent="yOzqqhK1axRImjvCnXJV-196" vertex="1">
          <mxGeometry x="600" y="690" width="430" height="430" as="geometry" />
        </mxCell>
        <mxCell id="761dnnyQ54j-Cl0NHfQN-5096" value="1" style="rounded=0;whiteSpace=wrap;html=1;fontSize=32;" parent="yOzqqhK1axRImjvCnXJV-196" vertex="1">
          <mxGeometry x="350" y="920" width="10" height="10" as="geometry" />
        </mxCell>
        <mxCell id="761dnnyQ54j-Cl0NHfQN-5097" value="24" style="rounded=0;whiteSpace=wrap;html=1;fontSize=32;" parent="yOzqqhK1axRImjvCnXJV-196" vertex="1">
          <mxGeometry x="360" y="690" width="240" height="240" as="geometry" />
        </mxCell>
        <mxCell id="761dnnyQ54j-Cl0NHfQN-5098" value="8" style="rounded=0;whiteSpace=wrap;html=1;fontSize=32;" parent="yOzqqhK1axRImjvCnXJV-196" vertex="1">
          <mxGeometry x="280" y="840" width="80" height="80" as="geometry" />
        </mxCell>
        <mxCell id="761dnnyQ54j-Cl0NHfQN-5099" value="36" style="rounded=0;whiteSpace=wrap;html=1;fontSize=32;" parent="yOzqqhK1axRImjvCnXJV-196" vertex="1">
          <mxGeometry y="480" width="360" height="360" as="geometry" />
        </mxCell>
        <mxCell id="761dnnyQ54j-Cl0NHfQN-5100" value="45" style="rounded=0;whiteSpace=wrap;html=1;fontSize=32;" parent="yOzqqhK1axRImjvCnXJV-196" vertex="1">
          <mxGeometry x="1030" y="670" width="450" height="450" as="geometry" />
        </mxCell>
        <mxCell id="761dnnyQ54j-Cl0NHfQN-5101" value="21" style="rounded=0;whiteSpace=wrap;html=1;fontSize=32;" parent="yOzqqhK1axRImjvCnXJV-196" vertex="1">
          <mxGeometry x="360" y="480" width="210" height="210" as="geometry" />
        </mxCell>
        <mxCell id="761dnnyQ54j-Cl0NHfQN-5102" value="30" style="rounded=0;whiteSpace=wrap;html=1;fontSize=32;" parent="yOzqqhK1axRImjvCnXJV-196" vertex="1">
          <mxGeometry x="570" y="390" width="300" height="300" as="geometry" />
        </mxCell>
        <mxCell id="761dnnyQ54j-Cl0NHfQN-5103" value="14" style="rounded=0;whiteSpace=wrap;html=1;fontSize=32;" parent="yOzqqhK1axRImjvCnXJV-196" vertex="1">
          <mxGeometry x="870" y="550" width="140" height="140" as="geometry" />
        </mxCell>
        <mxCell id="761dnnyQ54j-Cl0NHfQN-5104" value="2" style="rounded=0;whiteSpace=wrap;html=1;fontSize=32;" parent="yOzqqhK1axRImjvCnXJV-196" vertex="1">
          <mxGeometry x="1010" y="670" width="20" height="20" as="geometry" />
        </mxCell>
        <mxCell id="761dnnyQ54j-Cl0NHfQN-5105" value="12" style="rounded=0;whiteSpace=wrap;html=1;fontSize=32;" parent="yOzqqhK1axRImjvCnXJV-196" vertex="1">
          <mxGeometry x="1010" y="550" width="120" height="120" as="geometry" />
        </mxCell>
        <mxCell id="761dnnyQ54j-Cl0NHfQN-5106" value="35" style="rounded=0;whiteSpace=wrap;html=1;fontSize=32;" parent="yOzqqhK1axRImjvCnXJV-196" vertex="1">
          <mxGeometry x="1130" y="320" width="350" height="350" as="geometry" />
        </mxCell>
        <mxCell id="761dnnyQ54j-Cl0NHfQN-5107" value="26" style="rounded=0;whiteSpace=wrap;html=1;fontSize=32;" parent="yOzqqhK1axRImjvCnXJV-196" vertex="1">
          <mxGeometry x="870" y="290" width="260" height="260" as="geometry" />
        </mxCell>
        <mxCell id="761dnnyQ54j-Cl0NHfQN-5108" value="3" style="rounded=0;whiteSpace=wrap;html=1;fontSize=32;" parent="yOzqqhK1axRImjvCnXJV-196" vertex="1">
          <mxGeometry x="1130" y="290" width="30" height="30" as="geometry" />
        </mxCell>
        <mxCell id="761dnnyQ54j-Cl0NHfQN-5109" value="32" style="rounded=0;whiteSpace=wrap;html=1;fontSize=32;" parent="yOzqqhK1axRImjvCnXJV-196" vertex="1">
          <mxGeometry x="1160" width="320" height="320" as="geometry" />
        </mxCell>
        <mxCell id="761dnnyQ54j-Cl0NHfQN-5110" value="48" style="rounded=0;whiteSpace=wrap;html=1;fontSize=32;" parent="yOzqqhK1axRImjvCnXJV-196" vertex="1">
          <mxGeometry width="480" height="480" as="geometry" />
        </mxCell>
        <mxCell id="761dnnyQ54j-Cl0NHfQN-5111" value="9" style="rounded=0;whiteSpace=wrap;html=1;fontSize=32;" parent="yOzqqhK1axRImjvCnXJV-196" vertex="1">
          <mxGeometry x="480" y="390" width="90" height="90" as="geometry" />
        </mxCell>
        <mxCell id="761dnnyQ54j-Cl0NHfQN-5112" value="39" style="rounded=0;whiteSpace=wrap;html=1;fontSize=32;" parent="yOzqqhK1axRImjvCnXJV-196" vertex="1">
          <mxGeometry x="480" width="390" height="390" as="geometry" />
        </mxCell>
        <mxCell id="761dnnyQ54j-Cl0NHfQN-5113" value="29" style="rounded=0;whiteSpace=wrap;html=1;fontSize=32;" parent="yOzqqhK1axRImjvCnXJV-196" vertex="1">
          <mxGeometry x="870" width="290" height="290" as="geometry" />
        </mxCell>
        <mxCell id="yOzqqhK1axRImjvCnXJV-197" value="" style="group;flipV=1;" vertex="1" connectable="0" parent="1">
          <mxGeometry x="15300" y="16160" width="1480" height="860" as="geometry" />
        </mxCell>
        <mxCell id="761dnnyQ54j-Cl0NHfQN-5213" value="40" style="rounded=0;whiteSpace=wrap;html=1;fontSize=32;" parent="yOzqqhK1axRImjvCnXJV-197" vertex="1">
          <mxGeometry y="460" width="400" height="400" as="geometry" />
        </mxCell>
        <mxCell id="761dnnyQ54j-Cl0NHfQN-5214" value="34" style="rounded=0;whiteSpace=wrap;html=1;fontSize=32;" parent="yOzqqhK1axRImjvCnXJV-197" vertex="1">
          <mxGeometry x="400" y="520" width="340" height="340" as="geometry" />
        </mxCell>
        <mxCell id="761dnnyQ54j-Cl0NHfQN-5215" value="23" style="rounded=0;whiteSpace=wrap;html=1;fontSize=32;" parent="yOzqqhK1axRImjvCnXJV-197" vertex="1">
          <mxGeometry x="740" y="630" width="230" height="230" as="geometry" />
        </mxCell>
        <mxCell id="761dnnyQ54j-Cl0NHfQN-5216" value="27" style="rounded=0;whiteSpace=wrap;html=1;fontSize=32;" parent="yOzqqhK1axRImjvCnXJV-197" vertex="1">
          <mxGeometry x="970" y="590" width="270" height="270" as="geometry" />
        </mxCell>
        <mxCell id="761dnnyQ54j-Cl0NHfQN-5217" value="19" style="rounded=0;whiteSpace=wrap;html=1;fontSize=32;" parent="yOzqqhK1axRImjvCnXJV-197" vertex="1">
          <mxGeometry x="740" y="440" width="190" height="190" as="geometry" />
        </mxCell>
        <mxCell id="761dnnyQ54j-Cl0NHfQN-5218" value="4" style="rounded=0;whiteSpace=wrap;html=1;fontSize=32;" parent="yOzqqhK1axRImjvCnXJV-197" vertex="1">
          <mxGeometry x="930" y="590" width="40" height="40" as="geometry" />
        </mxCell>
        <mxCell id="761dnnyQ54j-Cl0NHfQN-5219" value="24" style="rounded=0;whiteSpace=wrap;html=1;fontSize=32;" parent="yOzqqhK1axRImjvCnXJV-197" vertex="1">
          <mxGeometry x="1240" y="620" width="240" height="240" as="geometry" />
        </mxCell>
        <mxCell id="761dnnyQ54j-Cl0NHfQN-5220" value="3" style="rounded=0;whiteSpace=wrap;html=1;fontSize=32;" parent="yOzqqhK1axRImjvCnXJV-197" vertex="1">
          <mxGeometry x="1240" y="590" width="30" height="30" as="geometry" />
        </mxCell>
        <mxCell id="761dnnyQ54j-Cl0NHfQN-5221" value="21" style="rounded=0;whiteSpace=wrap;html=1;fontSize=32;" parent="yOzqqhK1axRImjvCnXJV-197" vertex="1">
          <mxGeometry x="1270" y="410" width="210" height="210" as="geometry" />
        </mxCell>
        <mxCell id="761dnnyQ54j-Cl0NHfQN-5222" value="6" style="rounded=0;whiteSpace=wrap;html=1;fontSize=32;" parent="yOzqqhK1axRImjvCnXJV-197" vertex="1">
          <mxGeometry x="400" y="460" width="60" height="60" as="geometry" />
        </mxCell>
        <mxCell id="761dnnyQ54j-Cl0NHfQN-5223" value="20" style="rounded=0;whiteSpace=wrap;html=1;fontSize=32;" parent="yOzqqhK1axRImjvCnXJV-197" vertex="1">
          <mxGeometry x="460" y="320" width="200" height="200" as="geometry" />
        </mxCell>
        <mxCell id="761dnnyQ54j-Cl0NHfQN-5224" value="8" style="rounded=0;whiteSpace=wrap;html=1;fontSize=32;" parent="yOzqqhK1axRImjvCnXJV-197" vertex="1">
          <mxGeometry x="660" y="440" width="80" height="80" as="geometry" />
        </mxCell>
        <mxCell id="761dnnyQ54j-Cl0NHfQN-5225" value="16" style="rounded=0;whiteSpace=wrap;html=1;fontSize=32;" parent="yOzqqhK1axRImjvCnXJV-197" vertex="1">
          <mxGeometry x="930" y="430" width="160" height="160" as="geometry" />
        </mxCell>
        <mxCell id="761dnnyQ54j-Cl0NHfQN-5226" value="18" style="rounded=0;whiteSpace=wrap;html=1;fontSize=32;" parent="yOzqqhK1axRImjvCnXJV-197" vertex="1">
          <mxGeometry x="1090" y="410" width="180" height="180" as="geometry" />
        </mxCell>
        <mxCell id="761dnnyQ54j-Cl0NHfQN-5227" value="12" style="rounded=0;whiteSpace=wrap;html=1;fontSize=32;" parent="yOzqqhK1axRImjvCnXJV-197" vertex="1">
          <mxGeometry x="660" y="320" width="120" height="120" as="geometry" />
        </mxCell>
        <mxCell id="761dnnyQ54j-Cl0NHfQN-5228" value="15" style="rounded=0;whiteSpace=wrap;html=1;fontSize=32;" parent="yOzqqhK1axRImjvCnXJV-197" vertex="1">
          <mxGeometry x="780" y="290" width="150" height="150" as="geometry" />
        </mxCell>
        <mxCell id="761dnnyQ54j-Cl0NHfQN-5229" value="14" style="rounded=0;whiteSpace=wrap;html=1;fontSize=32;" parent="yOzqqhK1axRImjvCnXJV-197" vertex="1">
          <mxGeometry x="930" y="290" width="140" height="140" as="geometry" />
        </mxCell>
        <mxCell id="761dnnyQ54j-Cl0NHfQN-5230" value="2" style="rounded=0;whiteSpace=wrap;html=1;fontSize=32;" parent="yOzqqhK1axRImjvCnXJV-197" vertex="1">
          <mxGeometry x="1070" y="410" width="20" height="20" as="geometry" />
        </mxCell>
        <mxCell id="761dnnyQ54j-Cl0NHfQN-5231" value="41" style="rounded=0;whiteSpace=wrap;html=1;fontSize=32;" parent="yOzqqhK1axRImjvCnXJV-197" vertex="1">
          <mxGeometry x="1070" width="410" height="410" as="geometry" />
        </mxCell>
        <mxCell id="761dnnyQ54j-Cl0NHfQN-5232" value="46" style="rounded=0;whiteSpace=wrap;html=1;fontSize=32;" parent="yOzqqhK1axRImjvCnXJV-197" vertex="1">
          <mxGeometry width="460" height="460" as="geometry" />
        </mxCell>
        <mxCell id="761dnnyQ54j-Cl0NHfQN-5233" value="32" style="rounded=0;whiteSpace=wrap;html=1;fontSize=32;" parent="yOzqqhK1axRImjvCnXJV-197" vertex="1">
          <mxGeometry x="460" width="320" height="320" as="geometry" />
        </mxCell>
        <mxCell id="761dnnyQ54j-Cl0NHfQN-5234" value="29" style="rounded=0;whiteSpace=wrap;html=1;fontSize=32;" parent="yOzqqhK1axRImjvCnXJV-197" vertex="1">
          <mxGeometry x="780" width="290" height="290" as="geometry" />
        </mxCell>
        <mxCell id="yOzqqhK1axRImjvCnXJV-198" value="" style="group;flipV=1;" vertex="1" connectable="0" parent="1">
          <mxGeometry x="15320" y="17150" width="1480" height="860" as="geometry" />
        </mxCell>
        <mxCell id="761dnnyQ54j-Cl0NHfQN-5328" value="40" style="rounded=0;whiteSpace=wrap;html=1;fontSize=32;" parent="yOzqqhK1axRImjvCnXJV-198" vertex="1">
          <mxGeometry y="460" width="400" height="400" as="geometry" />
        </mxCell>
        <mxCell id="761dnnyQ54j-Cl0NHfQN-5329" value="34" style="rounded=0;whiteSpace=wrap;html=1;fontSize=32;" parent="yOzqqhK1axRImjvCnXJV-198" vertex="1">
          <mxGeometry x="400" y="520" width="340" height="340" as="geometry" />
        </mxCell>
        <mxCell id="761dnnyQ54j-Cl0NHfQN-5330" value="31" style="rounded=0;whiteSpace=wrap;html=1;fontSize=32;" parent="yOzqqhK1axRImjvCnXJV-198" vertex="1">
          <mxGeometry x="740" y="550" width="310" height="310" as="geometry" />
        </mxCell>
        <mxCell id="761dnnyQ54j-Cl0NHfQN-5331" value="19" style="rounded=0;whiteSpace=wrap;html=1;fontSize=32;" parent="yOzqqhK1axRImjvCnXJV-198" vertex="1">
          <mxGeometry x="1050" y="670" width="190" height="190" as="geometry" />
        </mxCell>
        <mxCell id="761dnnyQ54j-Cl0NHfQN-5332" value="24" style="rounded=0;whiteSpace=wrap;html=1;fontSize=32;" parent="yOzqqhK1axRImjvCnXJV-198" vertex="1">
          <mxGeometry x="1240" y="620" width="240" height="240" as="geometry" />
        </mxCell>
        <mxCell id="761dnnyQ54j-Cl0NHfQN-5333" value="14" style="rounded=0;whiteSpace=wrap;html=1;fontSize=32;" parent="yOzqqhK1axRImjvCnXJV-198" vertex="1">
          <mxGeometry x="1050" y="530" width="140" height="140" as="geometry" />
        </mxCell>
        <mxCell id="761dnnyQ54j-Cl0NHfQN-5334" value="5" style="rounded=0;whiteSpace=wrap;html=1;fontSize=32;" parent="yOzqqhK1axRImjvCnXJV-198" vertex="1">
          <mxGeometry x="1190" y="620" width="50" height="50" as="geometry" />
        </mxCell>
        <mxCell id="761dnnyQ54j-Cl0NHfQN-5335" value="29" style="rounded=0;whiteSpace=wrap;html=1;fontSize=32;" parent="yOzqqhK1axRImjvCnXJV-198" vertex="1">
          <mxGeometry x="1190" y="330" width="290" height="290" as="geometry" />
        </mxCell>
        <mxCell id="761dnnyQ54j-Cl0NHfQN-5336" value="11" style="rounded=0;whiteSpace=wrap;html=1;fontSize=32;" parent="yOzqqhK1axRImjvCnXJV-198" vertex="1">
          <mxGeometry x="740" y="440" width="110" height="110" as="geometry" />
        </mxCell>
        <mxCell id="761dnnyQ54j-Cl0NHfQN-5337" value="18" style="rounded=0;whiteSpace=wrap;html=1;fontSize=32;" parent="yOzqqhK1axRImjvCnXJV-198" vertex="1">
          <mxGeometry x="850" y="370" width="180" height="180" as="geometry" />
        </mxCell>
        <mxCell id="761dnnyQ54j-Cl0NHfQN-5338" value="2" style="rounded=0;whiteSpace=wrap;html=1;fontSize=32;" parent="yOzqqhK1axRImjvCnXJV-198" vertex="1">
          <mxGeometry x="1030" y="530" width="20" height="20" as="geometry" />
        </mxCell>
        <mxCell id="761dnnyQ54j-Cl0NHfQN-5339" value="16" style="rounded=0;whiteSpace=wrap;html=1;fontSize=32;" parent="yOzqqhK1axRImjvCnXJV-198" vertex="1">
          <mxGeometry x="1030" y="370" width="160" height="160" as="geometry" />
        </mxCell>
        <mxCell id="761dnnyQ54j-Cl0NHfQN-5340" value="6" style="rounded=0;whiteSpace=wrap;html=1;fontSize=32;" parent="yOzqqhK1axRImjvCnXJV-198" vertex="1">
          <mxGeometry x="400" y="460" width="60" height="60" as="geometry" />
        </mxCell>
        <mxCell id="761dnnyQ54j-Cl0NHfQN-5341" value="20" style="rounded=0;whiteSpace=wrap;html=1;fontSize=32;" parent="yOzqqhK1axRImjvCnXJV-198" vertex="1">
          <mxGeometry x="460" y="320" width="200" height="200" as="geometry" />
        </mxCell>
        <mxCell id="761dnnyQ54j-Cl0NHfQN-5342" value="8" style="rounded=0;whiteSpace=wrap;html=1;fontSize=32;" parent="yOzqqhK1axRImjvCnXJV-198" vertex="1">
          <mxGeometry x="660" y="440" width="80" height="80" as="geometry" />
        </mxCell>
        <mxCell id="761dnnyQ54j-Cl0NHfQN-5343" value="12" style="rounded=0;whiteSpace=wrap;html=1;fontSize=32;" parent="yOzqqhK1axRImjvCnXJV-198" vertex="1">
          <mxGeometry x="660" y="320" width="120" height="120" as="geometry" />
        </mxCell>
        <mxCell id="761dnnyQ54j-Cl0NHfQN-5344" value="7" style="rounded=0;whiteSpace=wrap;html=1;fontSize=32;" parent="yOzqqhK1axRImjvCnXJV-198" vertex="1">
          <mxGeometry x="780" y="370" width="70" height="70" as="geometry" />
        </mxCell>
        <mxCell id="761dnnyQ54j-Cl0NHfQN-5345" value="37" style="rounded=0;whiteSpace=wrap;html=1;fontSize=32;" parent="yOzqqhK1axRImjvCnXJV-198" vertex="1">
          <mxGeometry x="780" width="370" height="370" as="geometry" />
        </mxCell>
        <mxCell id="761dnnyQ54j-Cl0NHfQN-5346" value="4" style="rounded=0;whiteSpace=wrap;html=1;fontSize=32;" parent="yOzqqhK1axRImjvCnXJV-198" vertex="1">
          <mxGeometry x="1150" y="330" width="40" height="40" as="geometry" />
        </mxCell>
        <mxCell id="761dnnyQ54j-Cl0NHfQN-5347" value="33" style="rounded=0;whiteSpace=wrap;html=1;fontSize=32;" parent="yOzqqhK1axRImjvCnXJV-198" vertex="1">
          <mxGeometry x="1150" width="330" height="330" as="geometry" />
        </mxCell>
        <mxCell id="761dnnyQ54j-Cl0NHfQN-5348" value="46" style="rounded=0;whiteSpace=wrap;html=1;fontSize=32;" parent="yOzqqhK1axRImjvCnXJV-198" vertex="1">
          <mxGeometry width="460" height="460" as="geometry" />
        </mxCell>
        <mxCell id="761dnnyQ54j-Cl0NHfQN-5349" value="32" style="rounded=0;whiteSpace=wrap;html=1;fontSize=32;" parent="yOzqqhK1axRImjvCnXJV-198" vertex="1">
          <mxGeometry x="460" width="320" height="320" as="geometry" />
        </mxCell>
        <mxCell id="yOzqqhK1axRImjvCnXJV-199" value="" style="group;flipV=1;" vertex="1" connectable="0" parent="1">
          <mxGeometry x="15290" y="18140" width="1480" height="750" as="geometry" />
        </mxCell>
        <mxCell id="761dnnyQ54j-Cl0NHfQN-5482" value="75" style="rounded=0;whiteSpace=wrap;html=1;fontSize=32;" parent="yOzqqhK1axRImjvCnXJV-199" vertex="1">
          <mxGeometry width="750" height="750" as="geometry" />
        </mxCell>
        <mxCell id="761dnnyQ54j-Cl0NHfQN-5483" value="34" style="rounded=0;whiteSpace=wrap;html=1;fontSize=32;fillColor=#f5f5f5;fontColor=#333333;strokeColor=#666666;" parent="yOzqqhK1axRImjvCnXJV-199" vertex="1">
          <mxGeometry x="750" y="410" width="340" height="340" as="geometry" />
        </mxCell>
        <mxCell id="761dnnyQ54j-Cl0NHfQN-5484" value="16" style="rounded=0;whiteSpace=wrap;html=1;fontSize=32;fillColor=#f5f5f5;fontColor=#333333;strokeColor=#666666;" parent="yOzqqhK1axRImjvCnXJV-199" vertex="1">
          <mxGeometry x="1090" y="590" width="160" height="160" as="geometry" />
        </mxCell>
        <mxCell id="761dnnyQ54j-Cl0NHfQN-5485" value="23" style="rounded=0;whiteSpace=wrap;html=1;fontSize=32;fillColor=#f5f5f5;fontColor=#333333;strokeColor=#666666;" parent="yOzqqhK1axRImjvCnXJV-199" vertex="1">
          <mxGeometry x="1250" y="520" width="230" height="230" as="geometry" />
        </mxCell>
        <mxCell id="761dnnyQ54j-Cl0NHfQN-5486" value="9" style="rounded=0;whiteSpace=wrap;html=1;fontSize=32;fillColor=#f5f5f5;fontColor=#333333;strokeColor=#666666;" parent="yOzqqhK1axRImjvCnXJV-199" vertex="1">
          <mxGeometry x="1090" y="500" width="90" height="90" as="geometry" />
        </mxCell>
        <mxCell id="761dnnyQ54j-Cl0NHfQN-5487" value="7" style="rounded=0;whiteSpace=wrap;html=1;fontSize=32;fillColor=#f5f5f5;fontColor=#333333;strokeColor=#666666;" parent="yOzqqhK1axRImjvCnXJV-199" vertex="1">
          <mxGeometry x="1180" y="520" width="70" height="70" as="geometry" />
        </mxCell>
        <mxCell id="761dnnyQ54j-Cl0NHfQN-5488" value="2" style="rounded=0;whiteSpace=wrap;html=1;fontSize=32;fillColor=#f5f5f5;fontColor=#333333;strokeColor=#666666;" parent="yOzqqhK1axRImjvCnXJV-199" vertex="1">
          <mxGeometry x="1180" y="500" width="20" height="20" as="geometry" />
        </mxCell>
        <mxCell id="761dnnyQ54j-Cl0NHfQN-5489" value="8" style="rounded=0;whiteSpace=wrap;html=1;fontSize=32;fillColor=#f5f5f5;fontColor=#333333;strokeColor=#666666;" parent="yOzqqhK1axRImjvCnXJV-199" vertex="1">
          <mxGeometry x="1200" y="440" width="80" height="80" as="geometry" />
        </mxCell>
        <mxCell id="761dnnyQ54j-Cl0NHfQN-5490" value="5" style="rounded=0;whiteSpace=wrap;html=1;fontSize=32;fillColor=#f5f5f5;fontColor=#333333;strokeColor=#666666;" parent="yOzqqhK1axRImjvCnXJV-199" vertex="1">
          <mxGeometry x="1090" y="450" width="50" height="50" as="geometry" />
        </mxCell>
        <mxCell id="761dnnyQ54j-Cl0NHfQN-5491" value="6" style="rounded=0;whiteSpace=wrap;html=1;fontSize=32;fillColor=#f5f5f5;fontColor=#333333;strokeColor=#666666;" parent="yOzqqhK1axRImjvCnXJV-199" vertex="1">
          <mxGeometry x="1140" y="440" width="60" height="60" as="geometry" />
        </mxCell>
        <mxCell id="761dnnyQ54j-Cl0NHfQN-5492" value="4" style="rounded=0;whiteSpace=wrap;html=1;fontSize=32;fillColor=#f5f5f5;fontColor=#333333;strokeColor=#666666;" parent="yOzqqhK1axRImjvCnXJV-199" vertex="1">
          <mxGeometry x="1090" y="410" width="40" height="40" as="geometry" />
        </mxCell>
        <mxCell id="761dnnyQ54j-Cl0NHfQN-5493" value="1" style="rounded=0;whiteSpace=wrap;html=1;fontSize=32;fillColor=#f5f5f5;fontColor=#333333;strokeColor=#666666;" parent="yOzqqhK1axRImjvCnXJV-199" vertex="1">
          <mxGeometry x="1130" y="440" width="10" height="10" as="geometry" />
        </mxCell>
        <mxCell id="761dnnyQ54j-Cl0NHfQN-5494" value="20" style="rounded=0;whiteSpace=wrap;html=1;fontSize=32;fillColor=#f5f5f5;fontColor=#333333;strokeColor=#666666;" parent="yOzqqhK1axRImjvCnXJV-199" vertex="1">
          <mxGeometry x="1280" y="320" width="200" height="200" as="geometry" />
        </mxCell>
        <mxCell id="761dnnyQ54j-Cl0NHfQN-5495" value="3" style="rounded=0;whiteSpace=wrap;html=1;fontSize=32;fillColor=#f5f5f5;fontColor=#333333;strokeColor=#666666;" parent="yOzqqhK1axRImjvCnXJV-199" vertex="1">
          <mxGeometry x="1130" y="410" width="30" height="30" as="geometry" />
        </mxCell>
        <mxCell id="761dnnyQ54j-Cl0NHfQN-5496" value="12" style="rounded=0;whiteSpace=wrap;html=1;fontSize=32;fillColor=#f5f5f5;fontColor=#333333;strokeColor=#666666;" parent="yOzqqhK1axRImjvCnXJV-199" vertex="1">
          <mxGeometry x="1160" y="320" width="120" height="120" as="geometry" />
        </mxCell>
        <mxCell id="761dnnyQ54j-Cl0NHfQN-5497" value="41" style="rounded=0;whiteSpace=wrap;html=1;fontSize=32;fillColor=#f5f5f5;fontColor=#333333;strokeColor=#666666;" parent="yOzqqhK1axRImjvCnXJV-199" vertex="1">
          <mxGeometry x="750" width="410" height="410" as="geometry" />
        </mxCell>
        <mxCell id="761dnnyQ54j-Cl0NHfQN-5498" value="32" style="rounded=0;whiteSpace=wrap;html=1;fontSize=32;fillColor=#f5f5f5;fontColor=#333333;strokeColor=#666666;" parent="yOzqqhK1axRImjvCnXJV-199" vertex="1">
          <mxGeometry x="1160" width="320" height="320" as="geometry" />
        </mxCell>
        <mxCell id="yOzqqhK1axRImjvCnXJV-200" value="" style="group;flipV=1;" vertex="1" connectable="0" parent="1">
          <mxGeometry x="15330" y="19060" width="1480" height="1400" as="geometry" />
        </mxCell>
        <mxCell id="yOzqqhK1axRImjvCnXJV-138" value="29" style="rounded=0;whiteSpace=wrap;html=1;fontSize=32;" vertex="1" parent="yOzqqhK1axRImjvCnXJV-200">
          <mxGeometry y="1110" width="290" height="290" as="geometry" />
        </mxCell>
        <mxCell id="yOzqqhK1axRImjvCnXJV-139" value="21" style="rounded=0;whiteSpace=wrap;html=1;fontSize=32;" vertex="1" parent="yOzqqhK1axRImjvCnXJV-200">
          <mxGeometry x="290" y="1190" width="210" height="210" as="geometry" />
        </mxCell>
        <mxCell id="yOzqqhK1axRImjvCnXJV-140" value="25" style="rounded=0;whiteSpace=wrap;html=1;fontSize=32;" vertex="1" parent="yOzqqhK1axRImjvCnXJV-200">
          <mxGeometry x="500" y="1150" width="250" height="250" as="geometry" />
        </mxCell>
        <mxCell id="yOzqqhK1axRImjvCnXJV-141" value="8" style="rounded=0;whiteSpace=wrap;html=1;fontSize=32;" vertex="1" parent="yOzqqhK1axRImjvCnXJV-200">
          <mxGeometry x="290" y="1110" width="80" height="80" as="geometry" />
        </mxCell>
        <mxCell id="yOzqqhK1axRImjvCnXJV-142" value="13" style="rounded=0;whiteSpace=wrap;html=1;fontSize=32;" vertex="1" parent="yOzqqhK1axRImjvCnXJV-200">
          <mxGeometry x="370" y="1060" width="130" height="130" as="geometry" />
        </mxCell>
        <mxCell id="yOzqqhK1axRImjvCnXJV-143" value="32" style="rounded=0;whiteSpace=wrap;html=1;fontSize=32;" vertex="1" parent="yOzqqhK1axRImjvCnXJV-200">
          <mxGeometry y="790" width="320" height="320" as="geometry" />
        </mxCell>
        <mxCell id="yOzqqhK1axRImjvCnXJV-144" value="5" style="rounded=0;whiteSpace=wrap;html=1;fontSize=32;" vertex="1" parent="yOzqqhK1axRImjvCnXJV-200">
          <mxGeometry x="320" y="1060" width="50" height="50" as="geometry" />
        </mxCell>
        <mxCell id="yOzqqhK1axRImjvCnXJV-145" value="37" style="rounded=0;whiteSpace=wrap;html=1;fontSize=32;" vertex="1" parent="yOzqqhK1axRImjvCnXJV-200">
          <mxGeometry x="750" y="1030" width="370" height="370" as="geometry" />
        </mxCell>
        <mxCell id="yOzqqhK1axRImjvCnXJV-146" value="9" style="rounded=0;whiteSpace=wrap;html=1;fontSize=32;" vertex="1" parent="yOzqqhK1axRImjvCnXJV-200">
          <mxGeometry x="500" y="1060" width="90" height="90" as="geometry" />
        </mxCell>
        <mxCell id="yOzqqhK1axRImjvCnXJV-147" value="16" style="rounded=0;whiteSpace=wrap;html=1;fontSize=32;" vertex="1" parent="yOzqqhK1axRImjvCnXJV-200">
          <mxGeometry x="590" y="990" width="160" height="160" as="geometry" />
        </mxCell>
        <mxCell id="yOzqqhK1axRImjvCnXJV-148" value="27" style="rounded=0;whiteSpace=wrap;html=1;fontSize=32;" vertex="1" parent="yOzqqhK1axRImjvCnXJV-200">
          <mxGeometry x="320" y="790" width="270" height="270" as="geometry" />
        </mxCell>
        <mxCell id="yOzqqhK1axRImjvCnXJV-149" value="36" style="rounded=0;whiteSpace=wrap;html=1;fontSize=32;" vertex="1" parent="yOzqqhK1axRImjvCnXJV-200">
          <mxGeometry x="1120" y="1040" width="360" height="360" as="geometry" />
        </mxCell>
        <mxCell id="yOzqqhK1axRImjvCnXJV-150" value="1" style="rounded=0;whiteSpace=wrap;html=1;fontSize=32;" vertex="1" parent="yOzqqhK1axRImjvCnXJV-200">
          <mxGeometry x="1120" y="1030" width="10" height="10" as="geometry" />
        </mxCell>
        <mxCell id="yOzqqhK1axRImjvCnXJV-151" value="35" style="rounded=0;whiteSpace=wrap;html=1;fontSize=32;" vertex="1" parent="yOzqqhK1axRImjvCnXJV-200">
          <mxGeometry x="1130" y="690" width="350" height="350" as="geometry" />
        </mxCell>
        <mxCell id="yOzqqhK1axRImjvCnXJV-152" value="4" style="rounded=0;whiteSpace=wrap;html=1;fontSize=32;" vertex="1" parent="yOzqqhK1axRImjvCnXJV-200">
          <mxGeometry x="750" y="990" width="40" height="40" as="geometry" />
        </mxCell>
        <mxCell id="yOzqqhK1axRImjvCnXJV-153" value="34" style="rounded=0;whiteSpace=wrap;html=1;fontSize=32;" vertex="1" parent="yOzqqhK1axRImjvCnXJV-200">
          <mxGeometry x="790" y="690" width="340" height="340" as="geometry" />
        </mxCell>
        <mxCell id="yOzqqhK1axRImjvCnXJV-154" value="20" style="rounded=0;whiteSpace=wrap;html=1;fontSize=32;" vertex="1" parent="yOzqqhK1axRImjvCnXJV-200">
          <mxGeometry x="590" y="790" width="200" height="200" as="geometry" />
        </mxCell>
        <mxCell id="yOzqqhK1axRImjvCnXJV-155" value="79" style="rounded=0;whiteSpace=wrap;html=1;fontSize=32;" vertex="1" parent="yOzqqhK1axRImjvCnXJV-200">
          <mxGeometry width="790" height="790" as="geometry" />
        </mxCell>
        <mxCell id="yOzqqhK1axRImjvCnXJV-156" value="69" style="rounded=0;whiteSpace=wrap;html=1;fontSize=32;" vertex="1" parent="yOzqqhK1axRImjvCnXJV-200">
          <mxGeometry x="790" width="690" height="690" as="geometry" />
        </mxCell>
      </root>
    </mxGraphModel>
  </diagram>
</mxfile>
